<svg width="32" height="32" viewBox="0 0 32 32" fill="none" xmlns="http://www.w3.org/2000/svg">
<path d="M26.3892 6.72179C26.3809 6.70571 26.3671 6.6931 26.3504 6.68624C24.414 5.79778 22.3705 5.16425 20.2711 4.80148C20.252 4.79793 20.2323 4.80049 20.2148 4.80879C20.1972 4.81709 20.1827 4.83071 20.1734 4.8477C19.8951 5.35274 19.6425 5.8715 19.4166 6.40199C17.1535 6.05847 14.8516 6.05847 12.5886 6.40199C12.3611 5.87015 12.1044 5.35126 11.8198 4.8477C11.81 4.83108 11.7955 4.81777 11.7781 4.80953C11.7606 4.80128 11.7411 4.79848 11.7221 4.80148C9.62244 5.16348 7.57882 5.79707 5.64265 6.68629C5.62608 6.69331 5.61209 6.70531 5.60262 6.72062C1.73066 12.5029 0.669984 18.143 1.19032 23.7132C1.19178 23.7269 1.19597 23.7401 1.20265 23.7521C1.20933 23.7641 1.21835 23.7746 1.22917 23.7831C3.48378 25.4524 6.00559 26.7267 8.68698 27.5514C8.70586 27.5571 8.72603 27.5568 8.74476 27.5507C8.76349 27.5446 8.7799 27.5328 8.79177 27.5171C9.36767 26.7335 9.87796 25.9037 10.3175 25.0362C10.3235 25.0243 10.3269 25.0113 10.3276 24.9979C10.3282 24.9846 10.326 24.9713 10.3211 24.9589C10.3162 24.9464 10.3088 24.9352 10.2992 24.9259C10.2897 24.9165 10.2782 24.9094 10.2657 24.9048C9.461 24.5969 8.68196 24.2257 7.93589 23.7948C7.92234 23.7868 7.91095 23.7756 7.90275 23.7622C7.89454 23.7488 7.88976 23.7336 7.88883 23.7179C7.8879 23.7022 7.89085 23.6865 7.89742 23.6722C7.90399 23.6579 7.91397 23.6455 7.92649 23.636C8.08304 23.5187 8.23969 23.3967 8.38917 23.2735C8.40245 23.2625 8.41853 23.2555 8.43558 23.2532C8.45263 23.2509 8.46998 23.2534 8.48568 23.2605C13.3735 25.4912 18.6653 25.4912 23.4953 23.2605C23.511 23.253 23.5285 23.2501 23.5458 23.2522C23.5631 23.2543 23.5795 23.2613 23.593 23.2723C23.7425 23.3955 23.8991 23.5187 24.0568 23.636C24.0694 23.6454 24.0795 23.6578 24.0862 23.672C24.0928 23.6862 24.0959 23.7019 24.0951 23.7176C24.0943 23.7333 24.0896 23.7485 24.0815 23.762C24.0734 23.7754 24.0621 23.7867 24.0486 23.7948C23.3042 24.2293 22.5245 24.6003 21.7177 24.9036C21.7051 24.9084 21.6938 24.9157 21.6843 24.9252C21.6748 24.9347 21.6674 24.946 21.6626 24.9585C21.6578 24.9711 21.6557 24.9845 21.6565 24.9978C21.6572 25.0112 21.6607 25.0243 21.6669 25.0362C22.1137 25.8989 22.6233 26.7276 23.1914 27.5157C23.2029 27.5319 23.2193 27.544 23.2381 27.5504C23.2569 27.5568 23.2772 27.5571 23.2962 27.5513C25.9824 26.7293 28.5086 25.455 30.766 23.7831C30.777 23.7751 30.7862 23.7648 30.7929 23.7529C30.7996 23.7411 30.8037 23.728 30.8049 23.7144C31.4278 17.2746 29.762 11.6807 26.3892 6.72179ZM11.0474 20.3215C9.57582 20.3215 8.36327 18.9711 8.36327 17.3126C8.36327 15.654 9.5523 14.3035 11.0474 14.3035C12.5542 14.3035 13.755 15.6658 13.7315 17.3125C13.7315 18.9711 12.5424 20.3215 11.0474 20.3215ZM20.9715 20.3215C19.5 20.3215 18.2874 18.9711 18.2874 17.3126C18.2874 15.654 19.4764 14.3035 20.9715 14.3035C22.4784 14.3035 23.6792 15.6658 23.6557 17.3125C23.6557 18.9711 22.4784 20.3215 20.9715 20.3215Z" fill="#F8FAFC"/>
</svg>
