<svg width="24" height="24" viewBox="0 0 24 24" fill="none" xmlns="http://www.w3.org/2000/svg">
<path d="M19.7918 5.0415C19.7855 5.02943 19.7752 5.01998 19.7627 5.01483C18.3103 4.34849 16.7777 3.87334 15.2032 3.60126C15.1889 3.5986 15.1741 3.60052 15.1609 3.60675C15.1478 3.61297 15.1369 3.62318 15.1299 3.63593C14.9212 4.01471 14.7318 4.40378 14.5623 4.80165C12.865 4.544 11.1386 4.544 9.44129 4.80165C9.27069 4.40277 9.07821 4.0136 8.86472 3.63593C8.8574 3.62346 8.84649 3.61348 8.83342 3.6073C8.82034 3.60112 8.80571 3.59901 8.79142 3.60126C7.21671 3.87277 5.68399 4.34795 4.23187 5.01487C4.21943 5.02014 4.20895 5.02914 4.20185 5.04062C1.29787 9.37732 0.502366 13.6074 0.892615 17.7851C0.893713 17.7953 0.896859 17.8052 0.901865 17.8142C0.906872 17.8232 0.913637 17.8311 0.921758 17.8375C2.61271 19.0895 4.50407 20.0452 6.51511 20.6637C6.52927 20.668 6.5444 20.6678 6.55845 20.6632C6.5725 20.6586 6.5848 20.6498 6.5937 20.638C7.02563 20.0503 7.40835 19.4279 7.73797 18.7773C7.7425 18.7684 7.74509 18.7586 7.74556 18.7486C7.74603 18.7386 7.74438 18.7286 7.74071 18.7193C7.73704 18.71 7.73144 18.7016 7.72428 18.6946C7.71712 18.6876 7.70855 18.6822 7.69915 18.6787C7.09563 18.4478 6.51135 18.1694 5.9518 17.8462C5.94163 17.8403 5.93309 17.8319 5.92694 17.8218C5.92078 17.8118 5.9172 17.8003 5.9165 17.7886C5.91581 17.7768 5.91802 17.765 5.92294 17.7543C5.92787 17.7436 5.93536 17.7343 5.94475 17.7271C6.06216 17.6392 6.17964 17.5477 6.29176 17.4553C6.30172 17.4471 6.31377 17.4418 6.32656 17.4401C6.33935 17.4383 6.35236 17.4402 6.36414 17.4455C10.03 19.1185 13.9988 19.1185 17.6213 17.4455C17.6331 17.4399 17.6463 17.4377 17.6593 17.4393C17.6722 17.4409 17.6845 17.4461 17.6946 17.4544C17.8068 17.5468 17.9242 17.6392 18.0425 17.7271C18.0519 17.7342 18.0595 17.7435 18.0645 17.7541C18.0695 17.7648 18.0718 17.7766 18.0712 17.7883C18.0706 17.8001 18.0671 17.8115 18.061 17.8216C18.0549 17.8317 18.0464 17.8402 18.0363 17.8462C17.4781 18.1722 16.8932 18.4503 16.2881 18.6778C16.2787 18.6814 16.2702 18.6869 16.2631 18.694C16.256 18.7011 16.2504 18.7097 16.2468 18.7191C16.2432 18.7284 16.2417 18.7385 16.2422 18.7485C16.2428 18.7586 16.2454 18.7684 16.25 18.7773C16.5852 19.4243 16.9673 20.0459 17.3934 20.6369C17.4021 20.6491 17.4143 20.6582 17.4284 20.663C17.4425 20.6677 17.4578 20.668 17.472 20.6636C19.4867 20.0472 21.3813 19.0914 23.0744 17.8375C23.0827 17.8314 23.0895 17.8237 23.0945 17.8149C23.0996 17.806 23.1026 17.7961 23.1036 17.786C23.5708 12.9561 22.3214 8.76071 19.7918 5.0415ZM8.28544 15.2413C7.18174 15.2413 6.27233 14.2285 6.27233 12.9846C6.27233 11.7407 7.1641 10.7278 8.28544 10.7278C9.41554 10.7278 10.3162 11.7495 10.2985 12.9845C10.2985 14.2285 9.4067 15.2413 8.28544 15.2413ZM15.7285 15.2413C14.6249 15.2413 13.7154 14.2285 13.7154 12.9846C13.7154 11.7407 14.6072 10.7278 15.7285 10.7278C16.8587 10.7278 17.7593 11.7495 17.7416 12.9845C17.7416 14.2285 16.8587 15.2413 15.7285 15.2413Z" fill="#5865F2"/>
</svg>
