<svg width="32" height="32" viewBox="0 0 32 32" fill="none" xmlns="http://www.w3.org/2000/svg">
<path d="M26.3889 6.72179C26.3806 6.70571 26.3669 6.6931 26.3501 6.68624C24.4137 5.79778 22.3702 5.16425 20.2708 4.80148C20.2518 4.79793 20.232 4.80049 20.2145 4.80879C20.197 4.81709 20.1825 4.83071 20.1731 4.8477C19.8949 5.35274 19.6423 5.8715 19.4163 6.40199C17.1533 6.05847 14.8514 6.05847 12.5883 6.40199C12.3608 5.87015 12.1042 5.35126 11.8195 4.8477C11.8098 4.83108 11.7952 4.81777 11.7778 4.80953C11.7604 4.80128 11.7409 4.79848 11.7218 4.80148C9.62219 5.16348 7.57858 5.79707 5.64241 6.68629C5.62583 6.69331 5.61185 6.70531 5.60238 6.72062C1.73042 12.5029 0.66974 18.143 1.19007 23.7132C1.19154 23.7269 1.19573 23.7401 1.20241 23.7521C1.20908 23.7641 1.2181 23.7746 1.22893 23.7831C3.48354 25.4524 6.00534 26.7267 8.68673 27.5514C8.70562 27.5571 8.72578 27.5568 8.74451 27.5507C8.76325 27.5446 8.77965 27.5328 8.79152 27.5171C9.36743 26.7335 9.87772 25.9037 10.3172 25.0362C10.3233 25.0243 10.3267 25.0113 10.3273 24.9979C10.328 24.9846 10.3258 24.9713 10.3209 24.9589C10.316 24.9464 10.3085 24.9352 10.299 24.9259C10.2894 24.9165 10.278 24.9094 10.2655 24.9048C9.46076 24.5969 8.68172 24.2257 7.93565 23.7948C7.92209 23.7868 7.91071 23.7756 7.9025 23.7622C7.8943 23.7488 7.88952 23.7336 7.88859 23.7179C7.88766 23.7022 7.89061 23.6865 7.89718 23.6722C7.90375 23.6579 7.91373 23.6455 7.92625 23.636C8.0828 23.5187 8.23944 23.3967 8.38893 23.2735C8.40221 23.2625 8.41828 23.2555 8.43533 23.2532C8.45238 23.2509 8.46974 23.2534 8.48544 23.2605C13.3733 25.4912 18.665 25.4912 23.495 23.2605C23.5108 23.253 23.5283 23.2501 23.5456 23.2522C23.5629 23.2543 23.5792 23.2613 23.5927 23.2723C23.7423 23.3955 23.8989 23.5187 24.0566 23.636C24.0692 23.6454 24.0792 23.6578 24.0859 23.672C24.0926 23.6862 24.0957 23.7019 24.0948 23.7176C24.094 23.7333 24.0894 23.7485 24.0813 23.762C24.0732 23.7754 24.0619 23.7867 24.0484 23.7948C23.304 24.2293 22.5242 24.6003 21.7174 24.9036C21.7049 24.9084 21.6935 24.9157 21.684 24.9252C21.6745 24.9347 21.6672 24.946 21.6624 24.9585C21.6576 24.9711 21.6555 24.9845 21.6562 24.9978C21.6569 25.0112 21.6605 25.0243 21.6666 25.0362C22.1135 25.8989 22.623 26.7276 23.1912 27.5157C23.2027 27.5319 23.219 27.544 23.2378 27.5504C23.2566 27.5568 23.277 27.5571 23.296 27.5513C25.9821 26.7293 28.5084 25.455 30.7658 23.7831C30.7768 23.7751 30.7859 23.7648 30.7926 23.7529C30.7993 23.7411 30.8034 23.728 30.8047 23.7144C31.4276 17.2746 29.7618 11.6807 26.3889 6.72179ZM11.0472 20.3215C9.57557 20.3215 8.36302 18.9711 8.36302 17.3126C8.36302 15.654 9.55206 14.3035 11.0472 14.3035C12.554 14.3035 13.7548 15.6658 13.7313 17.3125C13.7313 18.9711 12.5422 20.3215 11.0472 20.3215ZM20.9713 20.3215C19.4997 20.3215 18.2872 18.9711 18.2872 17.3126C18.2872 15.654 19.4762 14.3035 20.9713 14.3035C22.4782 14.3035 23.6789 15.6658 23.6554 17.3125C23.6554 18.9711 22.4782 20.3215 20.9713 20.3215Z" fill="#020617"/>
</svg>
