<svg width="32" height="32" viewBox="0 0 32 32" fill="none" xmlns="http://www.w3.org/2000/svg">
<g clip-path="url(#clip0_391_266)">
<path d="M10.8687 24.8375C10.8687 24.9625 10.725 25.0625 10.5437 25.0625C10.3375 25.0813 10.1938 24.9813 10.1938 24.8375C10.1938 24.7125 10.3375 24.6125 10.5188 24.6125C10.7063 24.5938 10.8687 24.6938 10.8687 24.8375ZM8.925 24.5563C8.88125 24.6813 9.00625 24.825 9.19375 24.8625C9.35625 24.925 9.54375 24.8625 9.58125 24.7375C9.61875 24.6125 9.5 24.4688 9.3125 24.4125C9.15 24.3688 8.96875 24.4313 8.925 24.5563ZM11.6875 24.45C11.5063 24.4938 11.3812 24.6125 11.4 24.7563C11.4187 24.8813 11.5813 24.9625 11.7688 24.9188C11.95 24.875 12.075 24.7563 12.0562 24.6313C12.0375 24.5125 11.8687 24.4313 11.6875 24.45ZM15.8 0.5C7.13125 0.5 0.5 7.08125 0.5 15.75C0.5 22.6813 4.8625 28.6125 11.0938 30.7C11.8938 30.8438 12.175 30.35 12.175 29.9438C12.175 29.5563 12.1562 27.4188 12.1562 26.1063C12.1562 26.1063 7.78125 27.0438 6.8625 24.2438C6.8625 24.2438 6.15 22.425 5.125 21.9563C5.125 21.9563 3.69375 20.975 5.225 20.9938C5.225 20.9938 6.78125 21.1188 7.6375 22.6063C9.00625 25.0188 11.3 24.325 12.1938 23.9125C12.3375 22.9125 12.7438 22.2188 13.1938 21.8063C9.7 21.4188 6.175 20.9125 6.175 14.9C6.175 13.1813 6.65 12.3188 7.65 11.2188C7.4875 10.8125 6.95625 9.1375 7.8125 6.975C9.11875 6.56875 12.125 8.6625 12.125 8.6625C13.375 8.3125 14.7188 8.13125 16.05 8.13125C17.3813 8.13125 18.725 8.3125 19.975 8.6625C19.975 8.6625 22.9813 6.5625 24.2875 6.975C25.1438 9.14375 24.6125 10.8125 24.45 11.2188C25.45 12.325 26.0625 13.1875 26.0625 14.9C26.0625 20.9313 22.3813 21.4125 18.8875 21.8063C19.4625 22.3 19.95 23.2375 19.95 24.7063C19.95 26.8125 19.9312 29.4188 19.9312 29.9313C19.9312 30.3375 20.2188 30.8313 21.0125 30.6875C27.2625 28.6125 31.5 22.6813 31.5 15.75C31.5 7.08125 24.4688 0.5 15.8 0.5ZM6.575 22.0563C6.49375 22.1188 6.5125 22.2625 6.61875 22.3813C6.71875 22.4813 6.8625 22.525 6.94375 22.4438C7.025 22.3813 7.00625 22.2375 6.9 22.1188C6.8 22.0188 6.65625 21.975 6.575 22.0563ZM5.9 21.55C5.85625 21.6313 5.91875 21.7313 6.04375 21.7938C6.14375 21.8563 6.26875 21.8375 6.3125 21.75C6.35625 21.6688 6.29375 21.5688 6.16875 21.5063C6.04375 21.4688 5.94375 21.4875 5.9 21.55ZM7.925 23.775C7.825 23.8563 7.8625 24.0438 8.00625 24.1625C8.15 24.3063 8.33125 24.325 8.4125 24.225C8.49375 24.1438 8.45625 23.9563 8.33125 23.8375C8.19375 23.6938 8.00625 23.675 7.925 23.775ZM7.2125 22.8563C7.1125 22.9188 7.1125 23.0813 7.2125 23.225C7.3125 23.3688 7.48125 23.4313 7.5625 23.3688C7.6625 23.2875 7.6625 23.125 7.5625 22.9813C7.475 22.8375 7.3125 22.775 7.2125 22.8563Z" fill="#F8FAFC"/>
</g>
<defs>
<clipPath id="clip0_391_266">
<rect width="31" height="32" fill="white" transform="translate(0.5)"/>
</clipPath>
</defs>
</svg>
