<svg width="32" height="32" viewBox="0 0 32 32" fill="none" xmlns="http://www.w3.org/2000/svg">
<path d="M16.1249 2.28577C8.48168 2.28577 2.28564 8.4818 2.28564 16.125C2.28564 23.7683 8.48168 29.9643 16.1249 29.9643C23.7682 29.9643 29.9642 23.7683 29.9642 16.125C29.9642 8.4818 23.7682 2.28577 16.1249 2.28577ZM22.5397 11.6976C22.3314 13.8859 21.4302 19.1964 20.9716 21.6474C20.7776 22.6844 20.3956 23.0322 20.0258 23.0662C19.2222 23.1402 18.6119 22.5351 17.8335 22.0248C16.6154 21.2264 15.9273 20.7293 14.745 19.9502C13.3786 19.0498 14.2644 18.5551 15.0431 17.746C15.2469 17.5343 18.7879 14.3135 18.8564 14.0213C18.8649 13.9848 18.8731 13.8483 18.792 13.7767C18.7109 13.705 18.5917 13.7293 18.5055 13.7488C18.3833 13.7765 16.4375 15.0626 12.668 17.6071C12.1157 17.9864 11.6154 18.1712 11.1672 18.1615C10.673 18.1508 9.72253 17.8821 9.01589 17.6524C8.1492 17.3707 7.46036 17.2218 7.52035 16.7433C7.5516 16.494 7.89479 16.2392 8.54993 15.9788C12.5844 14.2211 15.2746 13.0622 16.6207 12.5022C20.464 10.9036 21.2626 10.6259 21.7831 10.6167C21.8976 10.6148 22.1536 10.6431 22.3194 10.7777C22.4297 10.8735 22.5 11.0073 22.5164 11.1525C22.5445 11.3327 22.5523 11.5156 22.5397 11.6976Z" fill="#020617"/>
</svg>
