<svg width="33" height="32" viewBox="0 0 33 32" fill="none" xmlns="http://www.w3.org/2000/svg">
<path d="M31.828 8.14728C31.6442 7.45592 31.2822 6.82493 30.778 6.31743C30.2738 5.80993 29.6452 5.44372 28.9551 5.25543C26.4195 4.57141 16.254 4.57141 16.254 4.57141C16.254 4.57141 6.08847 4.57141 3.55285 5.25543C2.86271 5.44372 2.23411 5.80993 1.72994 6.31743C1.22577 6.82493 0.863698 7.45592 0.679958 8.14728C0 10.6992 0 16.0223 0 16.0223C0 16.0223 0 21.3455 0.679958 23.8987C0.864974 24.5845 1.22825 25.209 1.73285 25.7088C2.23745 26.2087 2.86539 26.566 3.55285 26.7445C6.08847 27.4286 16.254 27.4286 16.254 27.4286C16.254 27.4286 26.4195 27.4286 28.9551 26.7445C29.6428 26.5662 30.271 26.209 30.7759 25.7091C31.2807 25.2093 31.6442 24.5846 31.8293 23.8987C32.5079 21.3469 32.5079 16.0237 32.5079 16.0237C32.5079 16.0237 32.5079 10.7005 31.828 8.14728ZM12.93 20.8565V11.1895L21.4268 16.0237L12.93 20.8565Z" fill="#F8FAFC"/>
</svg>
