<svg width="138" height="44" viewBox="0 0 138 44" fill="none" xmlns="http://www.w3.org/2000/svg">
<path d="M43.9439 20.5077C43.1193 8.3844 32.6263 -0.772086 20.5067 0.0524501C14.4677 0.462835 9.16656 3.27529 5.46556 7.48833L5.45427 7.4808C5.42791 7.51469 5.40532 7.54857 5.38273 7.58246C1.70809 11.8218 -0.358894 17.4543 0.0514916 23.4934C0.0891416 24.0694 0.156912 24.6342 0.239742 25.1951C0.239742 25.2215 0.247272 25.2441 0.251037 25.2704C0.307512 25.6394 0.371517 26.0084 0.443052 26.3698C0.443052 26.3774 0.443052 26.3849 0.446817 26.3886C0.514587 26.7162 0.586122 27.0438 0.668952 27.3675C3.21033 37.4992 12.7019 44.6753 23.4924 43.9411C35.6119 43.1166 44.7722 32.6235 43.9476 20.5002L43.9439 20.5077ZM39.1548 20.8353C39.2565 22.3262 39.1623 23.787 38.895 25.1951C38.895 25.1876 38.8875 25.1801 38.8875 25.1726C37.2911 21.2758 34.1361 18.4596 31.365 16.9046C31.926 10.3008 29.6858 7.51469 27.1482 7.06289C27.0804 7.04783 27.0089 7.03653 26.9411 7.029C24.9269 6.76922 23.0858 8.19239 22.8298 10.2067C22.57 12.2209 23.9931 14.062 26.0074 14.318C26.1844 14.3406 26.3576 14.3482 26.527 14.3444C26.5383 14.5665 26.5458 14.8037 26.5458 15.0522C24.2002 14.4724 22.009 14.3557 20.0098 14.5364C19.2605 14.5854 18.5151 14.6795 17.7696 14.8188C18.0181 12.5899 18.8577 10.0824 20.4804 8.25263C22.0504 6.47931 24.3847 5.46652 26.9298 5.72631C27.4118 5.77525 27.9276 5.89573 28.3907 6.0501C28.4132 6.05763 28.4358 6.06516 28.4547 6.06893C34.3507 8.471 38.6917 14.0696 39.151 20.8353H39.1548ZM23.8199 24.1937C23.8199 24.1937 23.8199 24.1974 23.8162 24.2012C23.2928 24.9579 22.6679 25.7034 21.9337 26.4263C20.8343 25.2591 19.9533 23.9979 19.2831 22.6952C19.2492 22.6236 19.2116 22.5596 19.1777 22.4881C19.1777 22.4881 19.1777 22.4843 19.1777 22.4806C18.7861 21.6485 18.4511 20.7336 18.1913 19.7359C19.7537 19.3669 21.2861 19.2314 22.7507 19.3029C22.8298 19.3067 22.9051 19.3104 22.9841 19.3142H22.9916C23.9103 19.3895 24.8666 19.5589 25.8568 19.83C25.3937 21.3661 24.7461 22.7629 23.9517 23.9941C23.9103 24.0581 23.8689 24.1221 23.8237 24.1899L23.8199 24.1937ZM16.305 5.77149C16.305 5.77149 16.2975 5.78278 16.2937 5.78655C13.7147 9.11481 12.8563 13.2526 12.8939 16.4302C6.8925 19.2464 5.60487 22.5785 6.47835 25.0031C6.50094 25.0709 6.52729 25.1349 6.55365 25.1989C7.33677 27.0701 9.49035 27.9549 11.3616 27.1718C13.2328 26.3886 14.1175 24.2351 13.3344 22.3639C13.2666 22.202 13.1838 22.0476 13.0972 21.9008C13.2855 21.7765 13.4888 21.6523 13.7072 21.5243C14.3773 23.8473 15.3675 25.8088 16.5234 27.4504C16.9413 28.0716 17.3931 28.6702 17.8863 29.2463C15.8306 30.1461 13.2403 30.6732 10.842 30.1838C8.52275 29.7094 6.47835 28.1959 5.42791 25.8615C5.22837 25.4173 5.074 24.9128 4.97611 24.4346C4.91587 24.0167 4.86693 23.595 4.83681 23.1658C4.30218 15.2857 9.18915 8.27145 16.305 5.77149ZM23.1648 39.1558C18.4849 39.4758 14.11 37.8794 10.8043 35.0406C14.976 35.6091 18.9895 34.2839 21.7228 32.6611C27.1633 36.4525 30.6948 35.9028 32.359 33.9337C32.4041 33.881 32.4493 33.8245 32.4907 33.7681C33.7219 32.1529 33.4094 29.8487 31.7942 28.6175C30.179 27.3864 27.8749 27.6989 26.6437 29.3141C26.5383 29.4534 26.4442 29.604 26.3613 29.7546C26.1618 29.6529 25.9509 29.54 25.7363 29.4157C27.4155 27.6725 28.609 25.8314 29.4524 24.0092C29.7837 23.3352 30.0736 22.6425 30.3259 21.9271C32.1331 23.2599 33.8876 25.2366 34.6632 27.5596C35.4124 29.8035 35.1262 32.3336 33.6278 34.4081C33.3454 34.7997 32.984 35.1875 32.6188 35.5112C32.615 35.515 32.6075 35.5225 32.6037 35.5263C29.9833 37.5858 26.7378 38.911 23.1686 39.152L23.1648 39.1558Z" fill="url(#paint0_linear_391_380)"/>
<path style="mix-blend-mode:overlay" opacity="0.9" d="M27.149 7.05891C27.0813 7.04385 27.0097 7.03255 26.942 7.02502C26.5843 6.97984 26.2341 6.98737 25.8991 7.04385C28.0037 8.18841 29.536 11.3774 28.7303 17.6725C28.463 19.7583 27.8418 21.7387 26.9495 23.5609C26.2228 25.1272 25.2364 26.7047 23.9111 28.222C24.5474 28.7001 25.1686 29.0992 25.7372 29.423C27.4163 27.6798 28.6099 25.8387 29.4532 24.0165C30.3493 22.198 30.9667 20.2138 31.2341 18.128C32.1941 10.6357 29.8372 7.54083 27.149 7.06267V7.05891Z" fill="url(#paint1_radial_391_380)"/>
<g style="mix-blend-mode:overlay" opacity="0.8">
<path d="M28.7309 17.6687C29.5366 11.3774 28.0043 8.18464 25.8996 7.04008C25.8168 7.05138 25.7377 7.0702 25.6549 7.08903C27.7144 8.275 29.1978 11.4602 28.4034 17.6687C28.136 19.7545 27.5148 21.7349 26.6225 23.5571C25.9222 25.0707 24.9734 26.5955 23.7122 28.0676C23.7799 28.1203 23.8439 28.1693 23.9117 28.2182C25.237 26.7009 26.2234 25.1196 26.9501 23.5571C27.8461 21.7387 28.4636 19.7545 28.7309 17.6687Z" fill="#F8FAFC"/>
</g>
<path style="mix-blend-mode:overlay" opacity="0.5" d="M20.7305 31.9418C20.5309 31.7912 20.3427 31.6331 20.1507 31.475C17.0445 32.7701 12.7412 33.5834 8.46411 32.5894C9.1644 33.4817 9.94376 34.3063 10.8022 35.0404C14.9738 35.6089 18.9873 34.2837 21.7207 32.661C21.3969 32.4351 21.0656 32.1941 20.7267 31.9381L20.7305 31.9418Z" fill="url(#paint2_radial_391_380)"/>
<path style="mix-blend-mode:overlay" opacity="0.6" d="M20.1542 31.4749C20.0601 31.3959 19.9622 31.3168 19.8718 31.2377C16.7431 32.4877 12.4171 33.2369 8.15137 32.1715C8.25679 32.3108 8.36221 32.4538 8.46763 32.5894C12.7409 33.5833 17.0481 32.7701 20.1542 31.4749Z" fill="url(#paint3_linear_391_380)"/>
<path style="mix-blend-mode:overlay" opacity="0.9" d="M6.48196 25.0067C6.50455 25.0744 6.5309 25.1384 6.55726 25.2024C6.69656 25.5338 6.87728 25.8312 7.09565 26.0985C7.03541 23.704 9.03086 20.7786 14.8817 18.3313C16.8206 17.5218 18.8462 17.0663 20.8718 16.9307C22.5886 16.7764 24.4523 16.8404 26.4289 17.2319C26.5231 16.4413 26.5607 15.7033 26.5532 15.052C24.2076 14.4684 22.0126 14.3555 20.0134 14.5362C17.9916 14.6717 15.9622 15.1273 14.0233 15.9368C7.05424 18.8509 5.552 22.4389 6.48196 25.0104V25.0067Z" fill="url(#paint4_radial_391_380)"/>
<g style="mix-blend-mode:overlay" opacity="0.8">
<path d="M14.8816 18.3351C9.03077 20.7823 7.03532 23.7077 7.09556 26.1023C7.14827 26.1663 7.20474 26.2265 7.26122 26.2868C7.25745 23.911 9.27549 21.0346 15.0472 18.6174C16.9862 17.808 19.0118 17.3524 21.0374 17.2169C22.6977 17.0663 24.4936 17.1265 26.3987 17.4804C26.41 17.3976 26.4213 17.3148 26.4288 17.2319C24.4522 16.8441 22.5885 16.7764 20.8717 16.9307C18.8499 17.0663 16.8206 17.5218 14.8816 18.3313V18.3351Z" fill="#F8FAFC"/>
</g>
<path style="mix-blend-mode:overlay" opacity="0.4" d="M31.2411 18.1243C31.211 18.3728 31.1696 18.6137 31.1282 18.8584C33.8013 20.8991 36.659 24.2236 37.9391 28.4215C38.3607 27.3673 38.6845 26.2793 38.8916 25.1686C37.299 21.2718 34.1439 18.4593 31.3729 16.9044C31.339 17.2997 31.2976 17.7026 31.2449 18.1243H31.2411Z" fill="url(#paint5_radial_391_380)"/>
<path style="mix-blend-mode:overlay" opacity="0.5" d="M31.1272 18.8584C31.1046 18.9789 31.0858 19.1032 31.0632 19.2237C33.71 21.3095 36.5225 24.6791 37.7311 28.9072C37.8026 28.7453 37.8704 28.5834 37.9344 28.4216C36.6543 24.2236 33.8004 20.9028 31.1235 18.8584H31.1272Z" fill="url(#paint6_linear_391_380)"/>
<path style="mix-blend-mode:overlay" opacity="0.9" d="M32.3579 33.9297C32.4031 33.877 32.4483 33.8205 32.4897 33.7641C32.7081 33.4779 32.8737 33.1692 32.998 32.8529C30.9536 34.1029 27.4258 33.8356 22.3769 29.9915C20.7053 28.719 19.2971 27.1904 18.1676 25.5036C17.1737 24.0918 16.3002 22.4502 15.6489 20.5414C14.9184 20.8539 14.2596 21.1927 13.6948 21.524C14.365 23.847 15.3627 25.8048 16.5186 27.4464C17.6481 29.1331 19.0562 30.6579 20.7278 31.9343C26.7368 36.5125 30.5959 36.0193 32.3542 33.9297H32.3579Z" fill="url(#paint7_radial_391_380)"/>
<g style="mix-blend-mode:overlay" opacity="0.8">
<path d="M22.383 29.9915C27.4281 33.8356 30.9597 34.1029 33.0041 32.8529C33.0342 32.7739 33.0605 32.6948 33.0831 32.6195C31.0274 33.813 27.526 33.5005 22.5486 29.7091C20.877 28.4366 19.4689 26.908 18.3394 25.2213C17.3793 23.8583 16.5322 22.2733 15.8884 20.4472C15.8093 20.4811 15.734 20.5112 15.6587 20.5451C16.31 22.454 17.1835 24.0955 18.1775 25.5074C19.307 27.1941 20.7151 28.7189 22.3867 29.9953L22.383 29.9915Z" fill="#F8FAFC"/>
</g>
<path style="mix-blend-mode:overlay" opacity="0.3" d="M14.0197 15.9293C14.2494 15.8351 14.4791 15.7485 14.7125 15.6619C15.1417 12.3262 16.5912 8.18842 19.5882 4.9844C18.4662 5.14629 17.3631 5.40984 16.2938 5.78258C13.7148 9.11084 12.8564 13.2486 12.894 16.4262C13.2517 16.2568 13.6244 16.0912 14.016 15.9293H14.0197Z" fill="url(#paint8_radial_391_380)"/>
<path style="mix-blend-mode:overlay" opacity="0.4" d="M14.7134 15.6619C14.8301 15.6205 14.943 15.5753 15.0598 15.5339C15.5417 12.1981 17.0552 8.0792 20.1086 4.9166C19.9354 4.93542 19.7622 4.95801 19.5891 4.9806C16.5921 8.18839 15.1426 12.3224 14.7134 15.6581V15.6619Z" fill="url(#paint9_linear_391_380)"/>
<path style="mix-blend-mode:multiply" opacity="0.4" d="M20.5073 0.0522215C14.4683 0.462607 9.16713 3.27506 5.46613 7.4881C5.43978 7.51822 5.40966 7.55211 5.3833 7.58223C6.10242 8.29758 8.45931 9.70569 9.41185 10.293C11.2868 8.27875 13.6399 6.70498 16.3093 5.77126C16.4938 5.5303 16.6896 5.2931 16.8929 5.06344C19.3778 2.25851 22.7701 0.778867 26.7083 0.778867C27.145 0.778867 28.0373 0.850402 28.0561 0.850402C25.6691 0.165172 23.1278 -0.128499 20.5073 0.0522215Z" fill="url(#paint10_linear_391_380)"/>
<path style="mix-blend-mode:multiply" opacity="0.4" d="M23.1663 39.1593C18.4864 39.4793 14.1115 37.883 10.8058 35.0442C10.4971 35.0027 10.1883 34.9538 9.8796 34.8898C6.20873 34.1405 3.22685 31.9418 1.26152 28.5345C1.04315 28.1542 0.847365 27.7702 0.67041 27.3748C3.21179 37.5065 12.7034 44.6826 23.4901 43.9484C23.539 42.8377 23.2115 40.2587 23.1625 39.1593H23.1663Z" fill="url(#paint11_linear_391_380)"/>
<path style="mix-blend-mode:multiply" opacity="0.4" d="M43.9446 20.5075C43.2669 20.4397 39.9688 20.6995 39.1555 20.8351C39.2572 22.326 39.1631 23.7868 38.8958 25.1949C39.0087 25.4735 39.1179 25.7597 39.2158 26.0496C40.4018 29.6037 39.9876 33.2822 38.0223 36.6932C37.8077 37.066 37.5742 37.4237 37.3295 37.7663C37.3257 37.7738 37.3182 37.7813 37.3145 37.7851C37.3145 37.7851 37.3257 37.7776 37.3295 37.77C41.7986 33.4215 44.4002 27.2167 43.9446 20.5113V20.5075Z" fill="url(#paint12_linear_391_380)"/>
<path style="mix-blend-mode:multiply" opacity="0.5" d="M26.9358 5.72232C27.4177 5.77126 27.9335 5.89174 28.3966 6.04611C28.4192 6.05364 28.4418 6.06117 28.4606 6.06493C30.3582 6.83676 32.0938 7.94367 33.5923 9.31036C33.5923 9.31036 33.5998 9.31413 33.6036 9.31789C34.3265 8.49336 35.7158 7.58599 35.7158 7.58599C35.7158 7.58599 33.5885 5.40982 30.3318 4.73212C28.054 4.25773 22.9148 3.80217 19.6731 9.31789C19.6731 9.31789 19.6844 9.3066 19.7032 9.28777C19.9442 8.92633 20.1964 8.57242 20.4863 8.24863C22.0563 6.47532 24.3906 5.46253 26.9358 5.72232Z" fill="url(#paint13_linear_391_380)"/>
<path style="mix-blend-mode:multiply" opacity="0.5" d="M33.6293 34.4116C33.3469 34.8032 32.9855 35.191 32.6203 35.5148C32.6052 35.5298 32.5864 35.5449 32.5713 35.5599C30.9524 36.8174 29.1263 37.7662 27.1949 38.3799C27.1911 38.3799 27.1874 38.3799 27.1836 38.3837C27.5375 39.4228 27.6279 41.0794 27.6279 41.0794C27.6279 41.0794 30.5759 40.3264 32.7897 37.8453C34.3371 36.1096 37.3039 31.8853 34.1488 26.3206C34.1488 26.3206 34.1526 26.3394 34.1601 26.362C34.3559 26.7498 34.5329 27.1489 34.6684 27.5593C35.4177 29.8032 35.1315 32.3333 33.633 34.4078L33.6293 34.4116Z" fill="url(#paint14_linear_391_380)"/>
<path style="mix-blend-mode:multiply" opacity="0.5" d="M5.43705 25.8688C5.2375 25.4246 5.08314 24.9201 4.98525 24.4419C4.98148 24.4193 4.97395 24.3967 4.97019 24.3741C4.69158 22.3448 4.78194 20.2891 5.21491 18.3087C5.21491 18.305 5.21491 18.3012 5.21491 18.2974C4.13812 18.0866 2.65848 17.3336 2.65848 17.3336C2.65848 17.3336 1.83771 20.2665 2.88061 23.4216C3.61102 25.6316 5.78343 30.3115 12.1802 30.3605C12.1802 30.3605 12.1613 30.3567 12.1388 30.3492C11.7058 30.3228 11.2728 30.2777 10.8474 30.1911C8.52811 29.7167 6.48372 28.2031 5.43328 25.8688H5.43705Z" fill="url(#paint15_linear_391_380)"/>
<path style="mix-blend-mode:multiply" opacity="0.6" d="M26.0064 14.314C26.1833 14.3366 26.3565 14.3441 26.5259 14.3404C26.5259 14.3404 26.4092 12.055 26.1306 10.8803C25.8482 9.70942 25.4341 8.93006 24.9823 8.48956C24.6547 8.1733 23.6269 7.78174 22.8287 10.1989C22.5689 12.2131 23.9921 14.0542 26.0064 14.3103V14.314Z" fill="url(#paint16_linear_391_380)"/>
<path style="mix-blend-mode:multiply" opacity="0.5" d="M13.3365 22.3711C13.2688 22.2092 13.1859 22.0549 13.0993 21.908C13.0993 21.908 11.1754 23.1505 10.3019 23.9788C9.42847 24.8071 8.96161 25.5563 8.80724 26.17C8.69806 26.6105 8.87125 27.6948 11.3637 27.179C13.2349 26.3959 14.1197 24.2423 13.3365 22.3711Z" fill="url(#paint17_linear_391_380)"/>
<path style="mix-blend-mode:multiply" opacity="0.6" d="M26.6461 29.31C26.5407 29.4493 26.4466 29.5999 26.3638 29.7505C26.3638 29.7505 28.4006 30.7935 29.5565 31.1361C30.7123 31.4787 31.5934 31.5088 32.1995 31.3356C32.6363 31.2114 33.4872 30.5148 31.7967 28.6173C30.1815 27.3861 27.8773 27.6986 26.6461 29.3138V29.31Z" fill="url(#paint18_linear_391_380)"/>
<path style="mix-blend-mode:multiply" opacity="0.3" d="M25.8578 19.8335C25.3947 21.3696 24.7472 22.7664 23.9528 23.9976C23.9113 24.0616 23.8699 24.1256 23.8247 24.1934C23.8247 24.1934 23.8247 24.1971 23.821 24.2009C23.2976 24.9577 22.6727 25.7031 21.9385 26.426C22.443 26.9607 22.9851 27.4802 23.5838 27.9734C24.3368 28.5646 25.071 29.0427 25.7374 29.4192C27.4166 27.676 28.6101 25.8349 29.4534 24.0127C29.7847 23.3387 30.0746 22.646 30.3269 21.9306C29.5513 21.3621 28.7682 20.9065 28.0453 20.5978C27.2998 20.2778 26.5694 20.0293 25.8541 19.8335H25.8578Z" fill="url(#paint19_linear_391_380)"/>
<path style="mix-blend-mode:multiply" opacity="0.3" d="M10.8061 35.0441C14.9777 35.6126 18.9912 34.2874 21.7246 32.6646C21.4008 32.4387 21.0695 32.1978 20.7307 31.9418C19.6765 31.136 18.7277 30.2324 17.8843 29.2498C15.8286 30.1496 13.2383 30.6767 10.84 30.1873C8.52075 29.7129 6.47636 28.1993 5.42592 25.865C5.22638 25.4208 5.07201 24.9163 4.97412 24.4381C5.58029 28.6926 7.72634 32.4049 10.8023 35.0441H10.8061Z" fill="url(#paint20_linear_391_380)"/>
<path style="mix-blend-mode:multiply" opacity="0.3" d="M21.9399 26.426C20.8405 25.2589 19.9595 23.9976 19.2893 22.6949C19.2555 22.6234 19.2178 22.5594 19.1839 22.4878C19.1839 22.4878 19.1839 22.4841 19.1839 22.4803C18.7924 21.6482 18.4573 20.7334 18.1975 19.7356C17.4821 19.9051 16.763 20.1159 16.0401 20.387C15.1516 20.7409 14.3723 21.14 13.7134 21.524C14.3835 23.847 15.3737 25.8086 16.5296 27.4501C16.9475 28.0713 17.3993 28.67 17.8925 29.246C18.7735 28.862 19.5604 28.4064 20.1892 27.9358C20.8368 27.4501 21.4166 26.9418 21.9437 26.4223L21.9399 26.426Z" fill="url(#paint21_linear_391_380)"/>
<path style="mix-blend-mode:multiply" opacity="0.3" d="M16.2965 5.78627C13.7175 9.11454 12.859 13.2523 12.8967 16.4299C13.2544 16.2605 13.6309 16.0949 14.0224 15.9292C15.246 15.4172 16.5036 15.0482 17.7724 14.811C18.0209 12.5821 18.8604 10.0746 20.4832 8.24482C22.0532 6.4715 24.3875 5.45872 26.9326 5.7185C27.4145 5.76745 27.9303 5.88793 28.3934 6.04229C28.416 6.04982 28.4386 6.05735 28.4574 6.06112C26.1118 5.10481 23.5215 4.65301 20.8295 4.83749C19.2482 4.94668 17.7347 5.2667 16.304 5.77121C16.3002 5.77498 16.2965 5.78251 16.2927 5.78627H16.2965Z" fill="url(#paint22_linear_391_380)"/>
<path style="mix-blend-mode:multiply" opacity="0.3" d="M38.8932 25.1647C37.2968 21.268 34.1417 18.4517 31.3707 16.8968C31.3368 17.2921 31.2954 17.6987 31.2389 18.1242C31.0695 19.4382 30.7608 20.7107 30.3315 21.9306C32.1387 23.2634 33.8932 25.24 34.6688 27.563C35.4181 29.807 35.1319 32.3371 33.6335 34.4116C33.3511 34.8031 32.9896 35.1909 32.6244 35.5147C32.6207 35.5185 32.6131 35.526 32.6094 35.5298C35.8397 32.9922 38.1251 29.3326 38.9082 25.1911C38.9082 25.1836 38.9007 25.176 38.9007 25.1685L38.8932 25.1647Z" fill="url(#paint23_linear_391_380)"/>
<path style="mix-blend-mode:multiply" opacity="0.3" d="M17.7598 17.4616C17.8577 18.2673 18.0045 19.0203 18.1928 19.7356C19.7553 19.3666 21.2876 19.2311 22.7522 19.3026C22.8313 19.3064 22.9066 19.3102 22.9856 19.3139H22.9932C23.9118 19.3892 24.8681 19.5587 25.8583 19.8297C26.0692 19.1257 26.2461 18.3953 26.3741 17.6347C26.5134 16.686 26.5548 15.8087 26.5511 15.0444C24.2055 14.4646 22.0143 14.3479 20.015 14.5286C19.2658 14.5776 18.5203 14.6717 17.7749 14.811C17.6694 15.7673 17.6657 16.6747 17.7636 17.4578L17.7598 17.4616Z" fill="url(#paint24_linear_391_380)"/>
<path d="M110.312 16.3397L107.48 24.2198H107.503L110.327 16.3849L110.312 16.3397Z" fill="#F8FAFC"/>
<path d="M60.0534 16.3397L57.2222 24.2198H57.2335L60.0647 16.366L60.0534 16.3397Z" fill="#F8FAFC"/>
<path d="M60.761 18.3088L62.8845 24.2198H58.6263L57.5532 27.2017H63.9688L65.7873 32.2581H69.8572L62.4402 13.6515L60.761 18.3088Z" fill="#F8FAFC"/>
<path d="M57.2215 24.2199L60.0528 16.3397L60.0641 16.3661L61.2576 13.0529H58.1326L50.501 32.2581H54.3338L57.2328 24.2199H57.2215Z" fill="#F8FAFC"/>
<path d="M82.1875 22.3637C81.2613 21.8178 80.0302 21.3057 78.4978 20.8351C77.6206 20.549 76.9353 20.2854 76.4384 20.0407C75.9414 19.796 75.595 19.5173 75.403 19.2086C75.211 18.8961 75.1131 18.5309 75.1131 18.1092C75.1131 17.3675 75.3992 16.7952 75.9715 16.3924C76.5438 15.9895 77.3457 15.7862 78.3736 15.7862C79.2169 15.7862 80.0942 15.9142 81.0128 16.1665C81.9315 16.4187 82.7447 16.7651 83.4526 17.2019L83.9834 14.0957C83.2605 13.659 82.3795 13.3089 81.3442 13.0453C80.3088 12.7855 79.2772 12.6537 78.2493 12.6537C76.8525 12.6537 75.6364 12.8796 74.6123 13.3352C73.5845 13.7908 72.7901 14.4384 72.2253 15.2817C71.6606 16.1251 71.3782 17.119 71.3782 18.2636C71.3782 19.2425 71.5664 20.0859 71.9467 20.8012C72.327 21.5166 72.9444 22.1378 73.8029 22.6574C74.6613 23.1807 75.7908 23.6513 77.1876 24.073C78.1966 24.378 78.9797 24.6641 79.5369 24.9314C80.0942 25.1987 80.482 25.4999 80.7003 25.8275C80.9187 26.155 81.0279 26.5466 81.0279 27.0022C81.0279 27.7928 80.7041 28.414 80.0565 28.8583C79.4089 29.3026 78.5091 29.5285 77.3645 29.5285C76.3706 29.5285 75.3314 29.3741 74.2434 29.0616C73.1553 28.7491 72.2103 28.35 71.4008 27.8606L71.0469 31.0684C71.5175 31.3884 72.1086 31.667 72.8164 31.9004C73.5242 32.1376 74.2848 32.3221 75.1018 32.4577C75.9188 32.5932 76.732 32.661 77.5415 32.661C79.8156 32.661 81.6002 32.1414 82.8991 31.106C84.1943 30.0706 84.8456 28.6362 84.8456 26.7989C84.8456 25.8237 84.6348 24.9766 84.2131 24.2612C83.7914 23.5459 83.1175 22.9134 82.1913 22.3674L82.1875 22.3637Z" fill="#F8FAFC"/>
<path d="M102.348 13.0529H86.1018V16.1853H102.348V13.0529Z" fill="#F8FAFC"/>
<path d="M96.1582 17.4955H92.2915V32.2543H96.1582V17.4955Z" fill="#F8FAFC"/>
<path d="M107.48 24.2199L110.311 16.3397L110.326 16.3849L111.527 13.0529H108.387L100.759 32.2581H104.6L106.418 27.2017H106.426L107.502 24.2199H107.48Z" fill="#F8FAFC"/>
<path d="M111.024 18.3239L113.14 24.2198H108.897L107.823 27.2017H114.228L116.046 32.2581H120.116L112.703 13.6665L111.024 18.3239Z" fill="#F8FAFC"/>
<path d="M132.62 24.4758C133.546 23.9525 134.303 23.2522 134.894 22.3674C135.485 21.4827 135.779 20.451 135.779 19.2726C135.779 17.9925 135.492 16.8894 134.92 15.9632C134.348 15.037 133.531 14.3216 132.469 13.8171C131.407 13.3126 130.146 13.0603 128.678 13.0603H127.334V15.9669H128.169C130.73 15.9669 132.01 17.0625 132.01 19.25C132.01 21.4375 130.688 22.5331 128.041 22.5331H127.33V25.4397H129.303L133.346 32.2619H137.669L132.616 24.4796L132.62 24.4758Z" fill="#F8FAFC"/>
<path d="M126.028 13.0529H122.364V32.2544H126.028V13.0529Z" fill="#F8FAFC"/>
<defs>
<linearGradient id="paint0_linear_391_380" x1="6.98662" y1="37.0135" x2="35.0359" y2="8.96046" gradientUnits="userSpaceOnUse">
<stop stop-color="#E6007A"/>
<stop offset="0.21" stop-color="#703AC2"/>
<stop offset="0.46" stop-color="#0070EB"/>
<stop offset="0.77" stop-color="#0297FB"/>
<stop offset="1" stop-color="#0AE2FF"/>
</linearGradient>
<radialGradient id="paint1_radial_391_380" cx="0" cy="0" r="1" gradientUnits="userSpaceOnUse" gradientTransform="translate(28.271 17.5444) scale(8.36583 8.36584)">
<stop stop-color="white"/>
<stop offset="1" stop-color="white" stop-opacity="0"/>
</radialGradient>
<radialGradient id="paint2_radial_391_380" cx="0" cy="0" r="1" gradientUnits="userSpaceOnUse" gradientTransform="translate(15.9075 33.0638) scale(4.86815 4.86815)">
<stop stop-color="white"/>
<stop offset="1" stop-color="white" stop-opacity="0"/>
</radialGradient>
<linearGradient id="paint3_linear_391_380" x1="8.60317" y1="32.2392" x2="13.2944" y2="32.1752" gradientUnits="userSpaceOnUse">
<stop stop-color="white" stop-opacity="0"/>
<stop offset="1" stop-color="white"/>
</linearGradient>
<radialGradient id="paint4_radial_391_380" cx="0" cy="0" r="1" gradientUnits="userSpaceOnUse" gradientTransform="translate(15.0079 18.7941) rotate(-120) scale(8.36584 8.36583)">
<stop stop-color="white"/>
<stop offset="1" stop-color="white" stop-opacity="0"/>
</radialGradient>
<radialGradient id="paint5_radial_391_380" cx="0" cy="0" r="1" gradientUnits="userSpaceOnUse" gradientTransform="translate(34.6307 21.7422) rotate(-120) scale(4.86815)">
<stop stop-color="white"/>
<stop offset="1" stop-color="white" stop-opacity="0"/>
</radialGradient>
<linearGradient id="paint6_linear_391_380" x1="37.5658" y1="28.4768" x2="35.1648" y2="24.4461" gradientUnits="userSpaceOnUse">
<stop stop-color="white" stop-opacity="0"/>
<stop offset="1" stop-color="white"/>
</linearGradient>
<radialGradient id="paint7_radial_391_380" cx="0" cy="0" r="1" gradientUnits="userSpaceOnUse" gradientTransform="translate(22.3219 29.2678) rotate(120) scale(8.36584 8.36583)">
<stop stop-color="white"/>
<stop offset="1" stop-color="white" stop-opacity="0"/>
</radialGradient>
<radialGradient id="paint8_radial_391_380" cx="0" cy="0" r="1" gradientUnits="userSpaceOnUse" gradientTransform="translate(15.4617 11.1903) rotate(120) scale(4.86815 4.86815)">
<stop stop-color="white"/>
<stop offset="1" stop-color="white" stop-opacity="0"/>
</radialGradient>
<linearGradient id="paint9_linear_391_380" x1="19.8254" y1="5.27508" x2="17.5385" y2="9.37165" gradientUnits="userSpaceOnUse">
<stop stop-color="white" stop-opacity="0"/>
<stop offset="1" stop-color="white"/>
</linearGradient>
<linearGradient id="paint10_linear_391_380" x1="20.8462" y1="3.19223" x2="13.6776" y2="5.27804" gradientUnits="userSpaceOnUse">
<stop stop-color="#231F20"/>
<stop offset="1" stop-color="white"/>
</linearGradient>
<linearGradient id="paint11_linear_391_380" x1="7.30434" y1="30.5261" x2="13.2982" y2="36.7836" gradientUnits="userSpaceOnUse">
<stop stop-color="#231F20"/>
<stop offset="1" stop-color="white"/>
</linearGradient>
<linearGradient id="paint12_linear_391_380" x1="39.4718" y1="29.5849" x2="41.5576" y2="23.2447" gradientUnits="userSpaceOnUse">
<stop stop-color="#231F20"/>
<stop offset="1" stop-color="white"/>
</linearGradient>
<linearGradient id="paint13_linear_391_380" x1="24.112" y1="6.8217" x2="33.7203" y2="9.02046" gradientUnits="userSpaceOnUse">
<stop stop-color="#231F20"/>
<stop offset="1" stop-color="white"/>
</linearGradient>
<linearGradient id="paint14_linear_391_380" x1="34.0911" y1="31.4159" x2="27.3776" y2="38.6389" gradientUnits="userSpaceOnUse">
<stop stop-color="#231F20"/>
<stop offset="1" stop-color="white"/>
</linearGradient>
<linearGradient id="paint15_linear_391_380" x1="7.79843" y1="27.7647" x2="4.90173" y2="18.3424" gradientUnits="userSpaceOnUse">
<stop stop-color="#231F20"/>
<stop offset="1" stop-color="white"/>
</linearGradient>
<linearGradient id="paint16_linear_391_380" x1="26.2097" y1="10.3645" x2="23.1713" y2="13.4066" gradientUnits="userSpaceOnUse">
<stop stop-color="#231F20"/>
<stop offset="1" stop-color="white"/>
</linearGradient>
<linearGradient id="paint17_linear_391_380" x1="9.8163" y1="24.1643" x2="13.9687" y2="25.2796" gradientUnits="userSpaceOnUse">
<stop stop-color="#231F20"/>
<stop offset="1" stop-color="white"/>
</linearGradient>
<linearGradient id="paint18_linear_391_380" x1="29.9627" y1="31.4622" x2="28.8505" y2="27.3117" gradientUnits="userSpaceOnUse">
<stop stop-color="#231F20"/>
<stop offset="1" stop-color="white"/>
</linearGradient>
<linearGradient id="paint19_linear_391_380" x1="23.644" y1="27.7701" x2="25.47" y2="25.2513" gradientUnits="userSpaceOnUse">
<stop stop-color="#231F20"/>
<stop offset="1" stop-color="white"/>
</linearGradient>
<linearGradient id="paint20_linear_391_380" x1="17.3647" y1="26.6783" x2="13.7165" y2="28.4177" gradientUnits="userSpaceOnUse">
<stop stop-color="#231F20"/>
<stop offset="1" stop-color="white"/>
</linearGradient>
<linearGradient id="paint21_linear_391_380" x1="16.0401" y1="20.6053" x2="17.1697" y2="22.9509" gradientUnits="userSpaceOnUse">
<stop stop-color="#231F20"/>
<stop offset="1" stop-color="white"/>
</linearGradient>
<linearGradient id="paint22_linear_391_380" x1="21.2926" y1="13.3615" x2="20.5133" y2="10.6695" gradientUnits="userSpaceOnUse">
<stop stop-color="#231F20"/>
<stop offset="1" stop-color="white"/>
</linearGradient>
<linearGradient id="paint23_linear_391_380" x1="29.7178" y1="25.6918" x2="31.9768" y2="26.2114" gradientUnits="userSpaceOnUse">
<stop stop-color="#231F20"/>
<stop offset="1" stop-color="white"/>
</linearGradient>
<linearGradient id="paint24_linear_391_380" x1="26.1746" y1="18.0602" x2="23.3094" y2="17.5406" gradientUnits="userSpaceOnUse">
<stop stop-color="#231F20"/>
<stop offset="1" stop-color="white"/>
</linearGradient>
</defs>
</svg>
