<svg width="138" height="44" viewBox="0 0 138 44" fill="none" xmlns="http://www.w3.org/2000/svg">
<path d="M43.9439 20.5077C43.1193 8.3844 32.6263 -0.772086 20.5067 0.0524501C14.4677 0.462835 9.16656 3.27529 5.46556 7.48833L5.45427 7.4808C5.42791 7.51469 5.40532 7.54857 5.38273 7.58246C1.70809 11.8218 -0.358894 17.4543 0.0514916 23.4934C0.0891416 24.0694 0.156912 24.6342 0.239742 25.1951C0.239742 25.2215 0.247272 25.2441 0.251037 25.2704C0.307512 25.6394 0.371517 26.0084 0.443052 26.3698C0.443052 26.3774 0.443052 26.3849 0.446817 26.3886C0.514587 26.7162 0.586122 27.0438 0.668952 27.3675C3.21033 37.4992 12.7019 44.6753 23.4924 43.9411C35.6119 43.1166 44.7722 32.6235 43.9476 20.5002L43.9439 20.5077ZM39.1548 20.8353C39.2565 22.3262 39.1623 23.787 38.895 25.1951C38.895 25.1876 38.8875 25.1801 38.8875 25.1726C37.2911 21.2758 34.1361 18.4596 31.365 16.9046C31.926 10.3008 29.6858 7.51469 27.1482 7.06289C27.0804 7.04783 27.0089 7.03653 26.9411 7.029C24.9269 6.76922 23.0858 8.19239 22.8298 10.2067C22.57 12.2209 23.9931 14.062 26.0074 14.318C26.1844 14.3406 26.3576 14.3482 26.527 14.3444C26.5383 14.5665 26.5458 14.8037 26.5458 15.0522C24.2002 14.4724 22.009 14.3557 20.0098 14.5364C19.2605 14.5854 18.5151 14.6795 17.7696 14.8188C18.0181 12.5899 18.8577 10.0824 20.4804 8.25263C22.0504 6.47931 24.3847 5.46652 26.9298 5.72631C27.4118 5.77525 27.9276 5.89573 28.3907 6.0501C28.4132 6.05763 28.4358 6.06516 28.4547 6.06893C34.3507 8.471 38.6917 14.0696 39.151 20.8353H39.1548ZM23.8199 24.1937C23.8199 24.1937 23.8199 24.1974 23.8162 24.2012C23.2928 24.9579 22.6679 25.7034 21.9337 26.4263C20.8343 25.2591 19.9533 23.9979 19.2831 22.6952C19.2492 22.6236 19.2116 22.5596 19.1777 22.4881C19.1777 22.4881 19.1777 22.4843 19.1777 22.4806C18.7861 21.6485 18.4511 20.7336 18.1913 19.7359C19.7537 19.3669 21.2861 19.2314 22.7507 19.3029C22.8298 19.3067 22.9051 19.3104 22.9841 19.3142H22.9916C23.9103 19.3895 24.8666 19.5589 25.8568 19.83C25.3937 21.3661 24.7461 22.7629 23.9517 23.9941C23.9103 24.0581 23.8689 24.1221 23.8237 24.1899L23.8199 24.1937ZM16.305 5.77149C16.305 5.77149 16.2975 5.78278 16.2937 5.78655C13.7147 9.11481 12.8563 13.2526 12.8939 16.4302C6.8925 19.2464 5.60487 22.5785 6.47835 25.0031C6.50094 25.0709 6.52729 25.1349 6.55365 25.1989C7.33677 27.0701 9.49035 27.9549 11.3616 27.1718C13.2328 26.3886 14.1175 24.2351 13.3344 22.3639C13.2666 22.202 13.1838 22.0476 13.0972 21.9008C13.2855 21.7765 13.4888 21.6523 13.7072 21.5243C14.3773 23.8473 15.3675 25.8088 16.5234 27.4504C16.9413 28.0716 17.3931 28.6702 17.8863 29.2463C15.8306 30.1461 13.2403 30.6732 10.842 30.1838C8.52275 29.7094 6.47835 28.1959 5.42791 25.8615C5.22837 25.4173 5.074 24.9128 4.97611 24.4346C4.91587 24.0167 4.86693 23.595 4.83681 23.1658C4.30218 15.2857 9.18915 8.27145 16.305 5.77149ZM23.1648 39.1558C18.4849 39.4758 14.11 37.8794 10.8043 35.0406C14.976 35.6091 18.9895 34.2839 21.7228 32.6611C27.1633 36.4525 30.6948 35.9028 32.359 33.9337C32.4041 33.881 32.4493 33.8245 32.4907 33.7681C33.7219 32.1529 33.4094 29.8487 31.7942 28.6175C30.179 27.3864 27.8749 27.6989 26.6437 29.3141C26.5383 29.4534 26.4442 29.604 26.3613 29.7546C26.1618 29.6529 25.9509 29.54 25.7363 29.4157C27.4155 27.6725 28.609 25.8314 29.4524 24.0092C29.7837 23.3352 30.0736 22.6425 30.3259 21.9271C32.1331 23.2599 33.8876 25.2366 34.6632 27.5596C35.4124 29.8035 35.1262 32.3336 33.6278 34.4081C33.3454 34.7997 32.984 35.1875 32.6188 35.5112C32.615 35.515 32.6075 35.5225 32.6037 35.5263C29.9833 37.5858 26.7378 38.911 23.1686 39.152L23.1648 39.1558Z" fill="url(#paint0_linear_383_227)"/>
<path style="mix-blend-mode:overlay" opacity="0.9" d="M27.1492 7.05891C27.0814 7.04385 27.0099 7.03255 26.9421 7.02502C26.5844 6.97984 26.2343 6.98737 25.8992 7.04385C28.0038 8.18841 29.5362 11.3774 28.7305 17.6725C28.4631 19.7583 27.8419 21.7387 26.9496 23.5609C26.223 25.1272 25.2365 26.7047 23.9113 28.222C24.5475 28.7001 25.1688 29.0992 25.7373 29.423C27.4165 27.6798 28.61 25.8387 29.4533 24.0165C30.3494 22.198 30.9669 20.2138 31.2342 18.128C32.1943 10.6357 29.8374 7.54083 27.1492 7.06267V7.05891Z" fill="url(#paint1_radial_383_227)"/>
<g style="mix-blend-mode:overlay" opacity="0.8">
<path d="M28.7309 17.6687C29.5366 11.3774 28.0043 8.18464 25.8996 7.04008C25.8168 7.05138 25.7377 7.0702 25.6549 7.08903C27.7144 8.275 29.1978 11.4602 28.4034 17.6687C28.136 19.7545 27.5148 21.7349 26.6225 23.5571C25.9222 25.0707 24.9734 26.5955 23.7122 28.0676C23.7799 28.1203 23.8439 28.1693 23.9117 28.2182C25.237 26.7009 26.2234 25.1196 26.9501 23.5571C27.8461 21.7387 28.4636 19.7545 28.7309 17.6687Z" fill="white"/>
</g>
<path style="mix-blend-mode:overlay" opacity="0.5" d="M20.7307 31.9418C20.5312 31.7912 20.3429 31.6331 20.1509 31.475C17.0448 32.7701 12.7414 33.5834 8.46436 32.5894C9.16465 33.4817 9.944 34.3063 10.8024 35.0404C14.974 35.6089 18.9875 34.2837 21.7209 32.661C21.3971 32.4351 21.0658 32.1941 20.727 31.9381L20.7307 31.9418Z" fill="url(#paint2_radial_383_227)"/>
<path style="mix-blend-mode:overlay" opacity="0.6" d="M20.1543 31.4749C20.0602 31.3959 19.9623 31.3168 19.8719 31.2377C16.7432 32.4877 12.4172 33.2369 8.15149 32.1715C8.25691 32.3108 8.36233 32.4538 8.46775 32.5894C12.741 33.5833 17.0482 32.7701 20.1543 31.4749Z" fill="url(#paint3_linear_383_227)"/>
<path style="mix-blend-mode:overlay" opacity="0.9" d="M6.48208 25.0067C6.50467 25.0744 6.53102 25.1384 6.55738 25.2024C6.69668 25.5338 6.8774 25.8312 7.09577 26.0985C7.03553 23.704 9.03098 20.7786 14.8818 18.3313C16.8208 17.5218 18.8463 17.0663 20.8719 16.9307C22.5888 16.7764 24.4524 16.8404 26.4291 17.2319C26.5232 16.4413 26.5608 15.7033 26.5533 15.052C24.2077 14.4684 22.0127 14.3555 20.0135 14.5362C17.9917 14.6717 15.9624 15.1273 14.0234 15.9368C7.05436 18.8509 5.55212 22.4389 6.48208 25.0104V25.0067Z" fill="url(#paint4_radial_383_227)"/>
<g style="mix-blend-mode:overlay" opacity="0.8">
<path d="M14.8817 18.3351C9.03089 20.7823 7.03544 23.7077 7.09568 26.1023C7.14839 26.1663 7.20486 26.2265 7.26134 26.2868C7.25757 23.911 9.27561 21.0346 15.0474 18.6174C16.9863 17.808 19.0119 17.3524 21.0375 17.2169C22.6978 17.0663 24.4937 17.1265 26.3988 17.4804C26.4101 17.3976 26.4214 17.3148 26.429 17.2319C24.4523 16.8441 22.5887 16.7764 20.8718 16.9307C18.85 17.0663 16.8207 17.5218 14.8817 18.3313V18.3351Z" fill="white"/>
</g>
<path style="mix-blend-mode:overlay" opacity="0.4" d="M31.2411 18.1243C31.211 18.3728 31.1696 18.6137 31.1282 18.8584C33.8013 20.8991 36.659 24.2236 37.9391 28.4215C38.3607 27.3673 38.6845 26.2793 38.8916 25.1686C37.299 21.2718 34.1439 18.4593 31.3729 16.9044C31.339 17.2997 31.2976 17.7026 31.2449 18.1243H31.2411Z" fill="url(#paint5_radial_383_227)"/>
<path style="mix-blend-mode:overlay" opacity="0.5" d="M31.1274 18.8584C31.1048 18.9789 31.0859 19.1032 31.0634 19.2237C33.7102 21.3095 36.5226 24.6791 37.7312 28.9072C37.8027 28.7453 37.8705 28.5834 37.9345 28.4216C36.6544 24.2236 33.8005 20.9028 31.1236 18.8584H31.1274Z" fill="url(#paint6_linear_383_227)"/>
<path style="mix-blend-mode:overlay" opacity="0.9" d="M32.3579 33.9297C32.4031 33.877 32.4483 33.8205 32.4897 33.7641C32.7081 33.4779 32.8737 33.1692 32.998 32.8529C30.9536 34.1029 27.4258 33.8356 22.3769 29.9915C20.7053 28.719 19.2971 27.1904 18.1676 25.5036C17.1737 24.0918 16.3002 22.4502 15.6489 20.5414C14.9184 20.8539 14.2596 21.1927 13.6948 21.524C14.365 23.847 15.3627 25.8048 16.5186 27.4464C17.6481 29.1331 19.0562 30.6579 20.7278 31.9343C26.7368 36.5125 30.5959 36.0193 32.3542 33.9297H32.3579Z" fill="url(#paint7_radial_383_227)"/>
<g style="mix-blend-mode:overlay" opacity="0.8">
<path d="M22.3829 29.9915C27.428 33.8356 30.9595 34.1029 33.0039 32.8529C33.0341 32.7739 33.0604 32.6948 33.083 32.6195C31.0273 33.813 27.5259 33.5005 22.5485 29.7091C20.8769 28.4366 19.4688 26.908 18.3392 25.2213C17.3792 23.8583 16.532 22.2733 15.8882 20.4472C15.8092 20.4811 15.7339 20.5112 15.6586 20.5451C16.3099 22.454 17.1834 24.0955 18.1774 25.5074C19.3069 27.1941 20.715 28.7189 22.3866 29.9953L22.3829 29.9915Z" fill="white"/>
</g>
<path style="mix-blend-mode:overlay" opacity="0.3" d="M14.0197 15.9293C14.2494 15.8351 14.4791 15.7485 14.7125 15.6619C15.1417 12.3262 16.5912 8.18842 19.5882 4.9844C18.4662 5.14629 17.3631 5.40984 16.2938 5.78258C13.7148 9.11084 12.8564 13.2486 12.894 16.4262C13.2517 16.2568 13.6244 16.0912 14.016 15.9293H14.0197Z" fill="url(#paint8_radial_383_227)"/>
<path style="mix-blend-mode:overlay" opacity="0.4" d="M14.7133 15.6619C14.83 15.6205 14.9429 15.5753 15.0596 15.5339C15.5416 12.1981 17.0551 8.0792 20.1085 4.9166C19.9353 4.93542 19.7621 4.95801 19.5889 4.9806C16.592 8.18839 15.1425 12.3224 14.7133 15.6581V15.6619Z" fill="url(#paint9_linear_383_227)"/>
<path style="mix-blend-mode:multiply" opacity="0.4" d="M20.5074 0.0522215C14.4684 0.462607 9.16725 3.27506 5.46625 7.4881C5.4399 7.51822 5.40978 7.55211 5.38342 7.58223C6.10254 8.29758 8.45943 9.70569 9.41197 10.293C11.2869 8.27875 13.6401 6.70498 16.3095 5.77126C16.4939 5.5303 16.6897 5.2931 16.893 5.06344C19.3779 2.25851 22.7702 0.778867 26.7084 0.778867C27.1451 0.778867 28.0374 0.850402 28.0563 0.850402C25.6693 0.165172 23.1279 -0.128499 20.5074 0.0522215Z" fill="url(#paint10_linear_383_227)"/>
<path style="mix-blend-mode:multiply" opacity="0.4" d="M23.1663 39.1593C18.4864 39.4793 14.1115 37.883 10.8058 35.0442C10.4971 35.0027 10.1883 34.9538 9.8796 34.8898C6.20873 34.1405 3.22685 31.9418 1.26152 28.5345C1.04315 28.1542 0.847365 27.7702 0.67041 27.3748C3.21179 37.5065 12.7034 44.6826 23.4901 43.9484C23.539 42.8377 23.2115 40.2587 23.1625 39.1593H23.1663Z" fill="url(#paint11_linear_383_227)"/>
<path style="mix-blend-mode:multiply" opacity="0.4" d="M43.9446 20.5075C43.2669 20.4397 39.9688 20.6995 39.1555 20.8351C39.2572 22.326 39.1631 23.7868 38.8958 25.1949C39.0087 25.4735 39.1179 25.7597 39.2158 26.0496C40.4018 29.6037 39.9876 33.2822 38.0223 36.6932C37.8077 37.066 37.5742 37.4237 37.3295 37.7663C37.3257 37.7738 37.3182 37.7813 37.3145 37.7851C37.3145 37.7851 37.3257 37.7776 37.3295 37.77C41.7986 33.4215 44.4002 27.2167 43.9446 20.5113V20.5075Z" fill="url(#paint12_linear_383_227)"/>
<path style="mix-blend-mode:multiply" opacity="0.5" d="M26.9358 5.72232C27.4177 5.77126 27.9335 5.89174 28.3966 6.04611C28.4192 6.05364 28.4418 6.06117 28.4606 6.06493C30.3582 6.83676 32.0938 7.94367 33.5923 9.31036C33.5923 9.31036 33.5998 9.31413 33.6036 9.31789C34.3265 8.49336 35.7158 7.58599 35.7158 7.58599C35.7158 7.58599 33.5885 5.40982 30.3318 4.73212C28.054 4.25773 22.9148 3.80217 19.6731 9.31789C19.6731 9.31789 19.6844 9.3066 19.7032 9.28777C19.9442 8.92633 20.1964 8.57242 20.4863 8.24863C22.0563 6.47532 24.3906 5.46253 26.9358 5.72232Z" fill="url(#paint13_linear_383_227)"/>
<path style="mix-blend-mode:multiply" opacity="0.5" d="M33.6293 34.4116C33.3469 34.8032 32.9855 35.191 32.6203 35.5148C32.6052 35.5298 32.5864 35.5449 32.5713 35.5599C30.9524 36.8174 29.1263 37.7662 27.1949 38.3799C27.1911 38.3799 27.1874 38.3799 27.1836 38.3837C27.5375 39.4228 27.6279 41.0794 27.6279 41.0794C27.6279 41.0794 30.5759 40.3264 32.7897 37.8453C34.3371 36.1096 37.3039 31.8853 34.1488 26.3206C34.1488 26.3206 34.1526 26.3394 34.1601 26.362C34.3559 26.7498 34.5329 27.1489 34.6684 27.5593C35.4177 29.8032 35.1315 32.3333 33.633 34.4078L33.6293 34.4116Z" fill="url(#paint14_linear_383_227)"/>
<path style="mix-blend-mode:multiply" opacity="0.5" d="M5.43692 25.8688C5.23738 25.4246 5.08301 24.9201 4.98512 24.4419C4.98136 24.4193 4.97383 24.3967 4.97006 24.3741C4.69145 22.3448 4.78181 20.2891 5.21479 18.3087C5.21479 18.305 5.21479 18.3012 5.21479 18.2974C4.138 18.0866 2.65835 17.3336 2.65835 17.3336C2.65835 17.3336 1.83758 20.2665 2.88049 23.4216C3.6109 25.6316 5.7833 30.3115 12.18 30.3605C12.18 30.3605 12.1612 30.3567 12.1386 30.3492C11.7057 30.3228 11.2727 30.2777 10.8472 30.1911C8.52799 29.7167 6.4836 28.2031 5.43316 25.8688H5.43692Z" fill="url(#paint15_linear_383_227)"/>
<path style="mix-blend-mode:multiply" opacity="0.6" d="M26.0064 14.314C26.1833 14.3366 26.3565 14.3441 26.5259 14.3404C26.5259 14.3404 26.4092 12.055 26.1306 10.8803C25.8482 9.70942 25.4341 8.93006 24.9823 8.48956C24.6547 8.1733 23.6269 7.78174 22.8287 10.1989C22.5689 12.2131 23.9921 14.0542 26.0064 14.3103V14.314Z" fill="url(#paint16_linear_383_227)"/>
<path style="mix-blend-mode:multiply" opacity="0.5" d="M13.3365 22.3711C13.2688 22.2092 13.1859 22.0549 13.0993 21.908C13.0993 21.908 11.1754 23.1505 10.3019 23.9788C9.42847 24.8071 8.96161 25.5563 8.80724 26.17C8.69806 26.6105 8.87125 27.6948 11.3637 27.179C13.2349 26.3959 14.1197 24.2423 13.3365 22.3711Z" fill="url(#paint17_linear_383_227)"/>
<path style="mix-blend-mode:multiply" opacity="0.6" d="M26.646 29.31C26.5406 29.4493 26.4465 29.5999 26.3636 29.7505C26.3636 29.7505 28.4005 30.7935 29.5564 31.1361C30.7122 31.4787 31.5932 31.5088 32.1994 31.3356C32.6361 31.2114 33.487 30.5148 31.7965 28.6173C30.1814 27.3861 27.8772 27.6986 26.646 29.3138V29.31Z" fill="url(#paint18_linear_383_227)"/>
<path style="mix-blend-mode:multiply" opacity="0.3" d="M25.8578 19.8335C25.3947 21.3696 24.7472 22.7664 23.9528 23.9976C23.9113 24.0616 23.8699 24.1256 23.8247 24.1934C23.8247 24.1934 23.8247 24.1971 23.821 24.2009C23.2976 24.9577 22.6727 25.7031 21.9385 26.426C22.443 26.9607 22.9851 27.4802 23.5838 27.9734C24.3368 28.5646 25.071 29.0427 25.7374 29.4192C27.4166 27.676 28.6101 25.8349 29.4534 24.0127C29.7847 23.3387 30.0746 22.646 30.3269 21.9306C29.5513 21.3621 28.7682 20.9065 28.0453 20.5978C27.2998 20.2778 26.5694 20.0293 25.8541 19.8335H25.8578Z" fill="url(#paint19_linear_383_227)"/>
<path style="mix-blend-mode:multiply" opacity="0.3" d="M10.8061 35.0441C14.9777 35.6126 18.9912 34.2874 21.7246 32.6646C21.4008 32.4387 21.0695 32.1978 20.7307 31.9418C19.6765 31.136 18.7277 30.2324 17.8843 29.2498C15.8286 30.1496 13.2383 30.6767 10.84 30.1873C8.52075 29.7129 6.47636 28.1993 5.42592 25.865C5.22638 25.4208 5.07201 24.9163 4.97412 24.4381C5.58029 28.6926 7.72634 32.4049 10.8023 35.0441H10.8061Z" fill="url(#paint20_linear_383_227)"/>
<path style="mix-blend-mode:multiply" opacity="0.3" d="M21.9398 26.426C20.8404 25.2589 19.9594 23.9976 19.2892 22.6949C19.2553 22.6234 19.2177 22.5594 19.1838 22.4878C19.1838 22.4878 19.1838 22.4841 19.1838 22.4803C18.7922 21.6482 18.4572 20.7334 18.1974 19.7356C17.482 19.9051 16.7629 20.1159 16.04 20.387C15.1515 20.7409 14.3721 21.14 13.7133 21.524C14.3834 23.847 15.3736 25.8086 16.5295 27.4501C16.9474 28.0713 17.3992 28.67 17.8924 29.246C18.7734 28.862 19.5603 28.4064 20.1891 27.9358C20.8366 27.4501 21.4164 26.9418 21.9436 26.4223L21.9398 26.426Z" fill="url(#paint21_linear_383_227)"/>
<path style="mix-blend-mode:multiply" opacity="0.3" d="M16.2964 5.78627C13.7173 9.11454 12.8589 13.2523 12.8966 16.4299C13.2542 16.2605 13.6307 16.0949 14.0223 15.9292C15.2459 15.4172 16.5034 15.0482 17.7722 14.811C18.0207 12.5821 18.8603 10.0746 20.483 8.24482C22.053 6.4715 24.3873 5.45872 26.9325 5.7185C27.4144 5.76745 27.9302 5.88793 28.3933 6.04229C28.4159 6.04982 28.4385 6.05735 28.4573 6.06112C26.1117 5.10481 23.5214 4.65301 20.8294 4.83749C19.2481 4.94668 17.7346 5.2667 16.3039 5.77121C16.3001 5.77498 16.2964 5.78251 16.2926 5.78627H16.2964Z" fill="url(#paint22_linear_383_227)"/>
<path style="mix-blend-mode:multiply" opacity="0.3" d="M38.8933 25.1647C37.2969 21.268 34.1418 18.4517 31.3708 16.8968C31.3369 17.2921 31.2955 17.6987 31.239 18.1242C31.0696 19.4382 30.7609 20.7107 30.3317 21.9306C32.1389 23.2634 33.8934 25.24 34.6689 27.563C35.4182 29.807 35.132 32.3371 33.6336 34.4116C33.3512 34.8031 32.9898 35.1909 32.6246 35.5147C32.6208 35.5185 32.6133 35.526 32.6095 35.5298C35.8399 32.9922 38.1252 29.3326 38.9083 25.1911C38.9083 25.1836 38.9008 25.176 38.9008 25.1685L38.8933 25.1647Z" fill="url(#paint23_linear_383_227)"/>
<path style="mix-blend-mode:multiply" opacity="0.3" d="M17.7598 17.4616C17.8577 18.2673 18.0045 19.0203 18.1928 19.7356C19.7553 19.3666 21.2876 19.2311 22.7522 19.3026C22.8313 19.3064 22.9066 19.3102 22.9856 19.3139H22.9932C23.9118 19.3892 24.8681 19.5587 25.8583 19.8297C26.0692 19.1257 26.2461 18.3953 26.3741 17.6347C26.5134 16.686 26.5548 15.8087 26.5511 15.0444C24.2055 14.4646 22.0143 14.3479 20.015 14.5286C19.2658 14.5776 18.5203 14.6717 17.7749 14.811C17.6694 15.7673 17.6657 16.6747 17.7636 17.4578L17.7598 17.4616Z" fill="url(#paint24_linear_383_227)"/>
<path d="M110.312 16.3397L107.48 24.2198H107.503L110.327 16.3849L110.312 16.3397Z" fill="#020617"/>
<path d="M60.0533 16.3397L57.222 24.2198H57.2333L60.0646 16.366L60.0533 16.3397Z" fill="#020617"/>
<path d="M60.7608 18.3088L62.8842 24.2198H58.626L57.553 27.2017H63.9685L65.787 32.2581H69.857L62.44 13.6515L60.7608 18.3088Z" fill="#020617"/>
<path d="M57.2214 24.2199L60.0527 16.3397L60.064 16.3661L61.2575 13.0529H58.1325L50.5009 32.2581H54.3336L57.2327 24.2199H57.2214Z" fill="#020617"/>
<path d="M82.1874 22.3637C81.2612 21.8178 80.03 21.3057 78.4977 20.8351C77.6204 20.549 76.9352 20.2854 76.4382 20.0407C75.9413 19.796 75.5949 19.5173 75.4029 19.2086C75.2108 18.8961 75.1129 18.5309 75.1129 18.1092C75.1129 17.3675 75.3991 16.7952 75.9714 16.3924C76.5437 15.9895 77.3456 15.7862 78.3734 15.7862C79.2168 15.7862 80.094 15.9142 81.0127 16.1665C81.9314 16.4187 82.7446 16.7651 83.4524 17.2019L83.9833 14.0957C83.2604 13.659 82.3794 13.3089 81.344 13.0453C80.3087 12.7855 79.277 12.6537 78.2492 12.6537C76.8524 12.6537 75.6363 12.8796 74.6122 13.3352C73.5844 13.7908 72.7899 14.4384 72.2252 15.2817C71.6604 16.1251 71.3781 17.119 71.3781 18.2636C71.3781 19.2425 71.5663 20.0859 71.9466 20.8012C72.3269 21.5166 72.9443 22.1378 73.8027 22.6574C74.6612 23.1807 75.7907 23.6513 77.1875 24.073C78.1965 24.378 78.9796 24.6641 79.5368 24.9314C80.094 25.1987 80.4818 25.4999 80.7002 25.8275C80.9186 26.155 81.0278 26.5466 81.0278 27.0022C81.0278 27.7928 80.704 28.414 80.0564 28.8583C79.4088 29.3026 78.509 29.5285 77.3644 29.5285C76.3705 29.5285 75.3313 29.3741 74.2432 29.0616C73.1552 28.7491 72.2101 28.35 71.4007 27.8606L71.0468 31.0684C71.5174 31.3884 72.1085 31.667 72.8163 31.9004C73.5241 32.1376 74.2847 32.3221 75.1017 32.4577C75.9187 32.5932 76.7319 32.661 77.5414 32.661C79.8154 32.661 81.6001 32.1414 82.899 31.106C84.1941 30.0706 84.8455 28.6362 84.8455 26.7989C84.8455 25.8237 84.6346 24.9766 84.213 24.2612C83.7913 23.5459 83.1173 22.9134 82.1912 22.3674L82.1874 22.3637Z" fill="#020617"/>
<path d="M102.348 13.0529H86.1016V16.1853H102.348V13.0529Z" fill="#020617"/>
<path d="M96.158 17.4955H92.2914V32.2543H96.158V17.4955Z" fill="#020617"/>
<path d="M107.48 24.2199L110.311 16.3397L110.326 16.3849L111.527 13.0529H108.387L100.759 32.2581H104.599L106.418 27.2017H106.425L107.502 24.2199H107.48Z" fill="#020617"/>
<path d="M111.024 18.3239L113.14 24.2198H108.896L107.823 27.2017H114.228L116.046 32.2581H120.116L112.703 13.6665L111.024 18.3239Z" fill="#020617"/>
<path d="M132.62 24.4758C133.546 23.9525 134.302 23.2522 134.894 22.3674C135.485 21.4827 135.778 20.451 135.778 19.2726C135.778 17.9925 135.492 16.8894 134.92 15.9632C134.348 15.037 133.531 14.3216 132.469 13.8171C131.407 13.3126 130.146 13.0603 128.678 13.0603H127.333V15.9669H128.169C130.73 15.9669 132.01 17.0625 132.01 19.25C132.01 21.4375 130.688 22.5331 128.041 22.5331H127.33V25.4397H129.303L133.346 32.2619H137.668L132.616 24.4796L132.62 24.4758Z" fill="#020617"/>
<path d="M126.027 13.0529H122.364V32.2544H126.027V13.0529Z" fill="#020617"/>
<defs>
<linearGradient id="paint0_linear_383_227" x1="6.98662" y1="37.0135" x2="35.0359" y2="8.96046" gradientUnits="userSpaceOnUse">
<stop stop-color="#E6007A"/>
<stop offset="0.21" stop-color="#703AC2"/>
<stop offset="0.46" stop-color="#0070EB"/>
<stop offset="0.77" stop-color="#0297FB"/>
<stop offset="1" stop-color="#0AE2FF"/>
</linearGradient>
<radialGradient id="paint1_radial_383_227" cx="0" cy="0" r="1" gradientUnits="userSpaceOnUse" gradientTransform="translate(28.2711 17.5444) scale(8.36583 8.36584)">
<stop stop-color="white"/>
<stop offset="1" stop-color="white" stop-opacity="0"/>
</radialGradient>
<radialGradient id="paint2_radial_383_227" cx="0" cy="0" r="1" gradientUnits="userSpaceOnUse" gradientTransform="translate(15.9078 33.0638) scale(4.86815 4.86815)">
<stop stop-color="white"/>
<stop offset="1" stop-color="white" stop-opacity="0"/>
</radialGradient>
<linearGradient id="paint3_linear_383_227" x1="8.60329" y1="32.2392" x2="13.2945" y2="32.1752" gradientUnits="userSpaceOnUse">
<stop stop-color="white" stop-opacity="0"/>
<stop offset="1" stop-color="white"/>
</linearGradient>
<radialGradient id="paint4_radial_383_227" cx="0" cy="0" r="1" gradientUnits="userSpaceOnUse" gradientTransform="translate(15.008 18.7941) rotate(-120) scale(8.36584 8.36583)">
<stop stop-color="white"/>
<stop offset="1" stop-color="white" stop-opacity="0"/>
</radialGradient>
<radialGradient id="paint5_radial_383_227" cx="0" cy="0" r="1" gradientUnits="userSpaceOnUse" gradientTransform="translate(34.6307 21.7422) rotate(-120) scale(4.86815)">
<stop stop-color="white"/>
<stop offset="1" stop-color="white" stop-opacity="0"/>
</radialGradient>
<linearGradient id="paint6_linear_383_227" x1="37.566" y1="28.4768" x2="35.1649" y2="24.4461" gradientUnits="userSpaceOnUse">
<stop stop-color="white" stop-opacity="0"/>
<stop offset="1" stop-color="white"/>
</linearGradient>
<radialGradient id="paint7_radial_383_227" cx="0" cy="0" r="1" gradientUnits="userSpaceOnUse" gradientTransform="translate(22.3219 29.2678) rotate(120) scale(8.36584 8.36583)">
<stop stop-color="white"/>
<stop offset="1" stop-color="white" stop-opacity="0"/>
</radialGradient>
<radialGradient id="paint8_radial_383_227" cx="0" cy="0" r="1" gradientUnits="userSpaceOnUse" gradientTransform="translate(15.4617 11.1903) rotate(120) scale(4.86815 4.86815)">
<stop stop-color="white"/>
<stop offset="1" stop-color="white" stop-opacity="0"/>
</radialGradient>
<linearGradient id="paint9_linear_383_227" x1="19.8253" y1="5.27508" x2="17.5384" y2="9.37165" gradientUnits="userSpaceOnUse">
<stop stop-color="white" stop-opacity="0"/>
<stop offset="1" stop-color="white"/>
</linearGradient>
<linearGradient id="paint10_linear_383_227" x1="20.8463" y1="3.19223" x2="13.6777" y2="5.27804" gradientUnits="userSpaceOnUse">
<stop stop-color="#231F20"/>
<stop offset="1" stop-color="white"/>
</linearGradient>
<linearGradient id="paint11_linear_383_227" x1="7.30434" y1="30.5261" x2="13.2982" y2="36.7836" gradientUnits="userSpaceOnUse">
<stop stop-color="#231F20"/>
<stop offset="1" stop-color="white"/>
</linearGradient>
<linearGradient id="paint12_linear_383_227" x1="39.4718" y1="29.5849" x2="41.5576" y2="23.2447" gradientUnits="userSpaceOnUse">
<stop stop-color="#231F20"/>
<stop offset="1" stop-color="white"/>
</linearGradient>
<linearGradient id="paint13_linear_383_227" x1="24.112" y1="6.8217" x2="33.7203" y2="9.02046" gradientUnits="userSpaceOnUse">
<stop stop-color="#231F20"/>
<stop offset="1" stop-color="white"/>
</linearGradient>
<linearGradient id="paint14_linear_383_227" x1="34.0911" y1="31.4159" x2="27.3776" y2="38.6389" gradientUnits="userSpaceOnUse">
<stop stop-color="#231F20"/>
<stop offset="1" stop-color="white"/>
</linearGradient>
<linearGradient id="paint15_linear_383_227" x1="7.7983" y1="27.7647" x2="4.9016" y2="18.3424" gradientUnits="userSpaceOnUse">
<stop stop-color="#231F20"/>
<stop offset="1" stop-color="white"/>
</linearGradient>
<linearGradient id="paint16_linear_383_227" x1="26.2097" y1="10.3645" x2="23.1713" y2="13.4066" gradientUnits="userSpaceOnUse">
<stop stop-color="#231F20"/>
<stop offset="1" stop-color="white"/>
</linearGradient>
<linearGradient id="paint17_linear_383_227" x1="9.8163" y1="24.1643" x2="13.9687" y2="25.2796" gradientUnits="userSpaceOnUse">
<stop stop-color="#231F20"/>
<stop offset="1" stop-color="white"/>
</linearGradient>
<linearGradient id="paint18_linear_383_227" x1="29.9625" y1="31.4622" x2="28.8504" y2="27.3117" gradientUnits="userSpaceOnUse">
<stop stop-color="#231F20"/>
<stop offset="1" stop-color="white"/>
</linearGradient>
<linearGradient id="paint19_linear_383_227" x1="23.644" y1="27.7701" x2="25.47" y2="25.2513" gradientUnits="userSpaceOnUse">
<stop stop-color="#231F20"/>
<stop offset="1" stop-color="white"/>
</linearGradient>
<linearGradient id="paint20_linear_383_227" x1="17.3647" y1="26.6783" x2="13.7165" y2="28.4177" gradientUnits="userSpaceOnUse">
<stop stop-color="#231F20"/>
<stop offset="1" stop-color="white"/>
</linearGradient>
<linearGradient id="paint21_linear_383_227" x1="16.04" y1="20.6053" x2="17.1695" y2="22.9509" gradientUnits="userSpaceOnUse">
<stop stop-color="#231F20"/>
<stop offset="1" stop-color="white"/>
</linearGradient>
<linearGradient id="paint22_linear_383_227" x1="21.2925" y1="13.3615" x2="20.5132" y2="10.6695" gradientUnits="userSpaceOnUse">
<stop stop-color="#231F20"/>
<stop offset="1" stop-color="white"/>
</linearGradient>
<linearGradient id="paint23_linear_383_227" x1="29.718" y1="25.6918" x2="31.977" y2="26.2114" gradientUnits="userSpaceOnUse">
<stop stop-color="#231F20"/>
<stop offset="1" stop-color="white"/>
</linearGradient>
<linearGradient id="paint24_linear_383_227" x1="26.1746" y1="18.0602" x2="23.3094" y2="17.5406" gradientUnits="userSpaceOnUse">
<stop stop-color="#231F20"/>
<stop offset="1" stop-color="white"/>
</linearGradient>
</defs>
</svg>
