<svg width="25" height="25" viewBox="0 0 25 25" fill="none" xmlns="http://www.w3.org/2000/svg">
<path d="M24.4698 11.6859C24.0201 5.07321 18.2965 0.0787604 11.6857 0.528507C8.3916 0.752354 5.50003 2.28642 3.48127 4.58444L3.47511 4.58034C3.46073 4.59882 3.44841 4.6173 3.43609 4.63578C1.4317 6.94818 0.304236 10.0204 0.528087 13.3145C0.548624 13.6287 0.58559 13.9367 0.630771 14.2427C0.630771 14.2571 0.634878 14.2694 0.636932 14.2838C0.667737 14.485 0.702649 14.6863 0.741669 14.8834C0.741669 14.8875 0.741669 14.8917 0.743723 14.8937C0.780689 15.0724 0.819708 15.251 0.864889 15.4277C2.25112 20.954 7.42843 24.8682 13.3143 24.4678C19.925 24.018 24.9216 18.2945 24.4719 11.6818L24.4698 11.6859ZM21.8575 11.8646C21.913 12.6778 21.8616 13.4746 21.7158 14.2427C21.7158 14.2386 21.7117 14.2345 21.7117 14.2304C20.841 12.1049 19.12 10.5687 17.6085 9.72059C17.9145 6.11851 16.6926 4.59882 15.3084 4.35238C15.2714 4.34417 15.2324 4.33801 15.1954 4.3339C14.0967 4.1922 13.0925 4.96847 12.9528 6.06717C12.8111 7.16587 13.5874 8.17009 14.6861 8.30974C14.7826 8.32206 14.8771 8.32617 14.9695 8.32412C14.9757 8.44528 14.9798 8.57466 14.9798 8.7102C13.7004 8.39394 12.5051 8.33028 11.4146 8.42885C11.0059 8.45555 10.5993 8.50689 10.1927 8.58288C10.3282 7.36712 10.7862 5.9994 11.6713 5.00133C12.5277 4.03407 13.801 3.48164 15.1893 3.62334C15.4521 3.65004 15.7335 3.71575 15.9861 3.79995C15.9984 3.80406 16.0107 3.80817 16.021 3.81022C19.2371 5.12044 21.6049 8.1742 21.8555 11.8646H21.8575ZM13.4929 13.6964C13.4929 13.6964 13.4929 13.6985 13.4909 13.7005C13.2054 14.1133 12.8645 14.5199 12.464 14.9142C11.8644 14.2776 11.3838 13.5896 11.0183 12.8791C10.9998 12.8401 10.9792 12.8052 10.9607 12.7661C10.9607 12.7661 10.9607 12.7641 10.9607 12.762C10.7472 12.3082 10.5644 11.8091 10.4227 11.2649C11.275 11.0637 12.1108 10.9897 12.9097 11.0288C12.9528 11.0308 12.9939 11.0329 13.037 11.0349H13.0411C13.5422 11.076 14.0639 11.1684 14.604 11.3163C14.3514 12.1542 13.9981 12.9161 13.5648 13.5876C13.5422 13.6225 13.5196 13.6574 13.495 13.6944L13.4929 13.6964ZM9.3938 3.64798C9.3938 3.64798 9.38969 3.65414 9.38764 3.6562C7.98087 5.47161 7.51263 7.72856 7.53317 9.46183C4.25961 10.998 3.55726 12.8154 4.03371 14.138C4.04603 14.1749 4.06041 14.2098 4.07478 14.2448C4.50195 15.2654 5.67665 15.748 6.69732 15.3209C7.718 14.8937 8.20061 13.719 7.77345 12.6984C7.73648 12.6101 7.6913 12.5259 7.64407 12.4458C7.74675 12.378 7.85765 12.3102 7.97676 12.2404C8.34232 13.5075 8.88243 14.5774 9.51291 15.4728C9.74087 15.8117 9.98731 16.1382 10.2563 16.4524C9.13503 16.9432 7.72211 17.2307 6.41392 16.9638C5.14885 16.705 4.03371 15.8795 3.46073 14.6062C3.35189 14.3639 3.26769 14.0887 3.21429 13.8279C3.18143 13.5999 3.15474 13.3699 3.13831 13.1358C2.84668 8.83753 5.51235 5.0116 9.3938 3.64798ZM13.1356 21.8576C10.5829 22.0322 8.1965 21.1614 6.39338 19.613C8.66885 19.9231 10.8581 19.2002 12.349 18.3151C15.3166 20.3831 17.2429 20.0833 18.1507 19.0092C18.1753 18.9804 18.1999 18.9496 18.2225 18.9188C18.8941 18.0378 18.7236 16.781 17.8426 16.1095C16.9616 15.4379 15.7047 15.6084 15.0332 16.4894C14.9757 16.5654 14.9243 16.6475 14.8792 16.7297C14.7703 16.6742 14.6553 16.6126 14.5382 16.5448C15.4542 15.594 16.1052 14.5898 16.5652 13.5958C16.7459 13.2282 16.9041 12.8503 17.0417 12.4601C18.0274 13.1871 18.9845 14.2653 19.4075 15.5324C19.8162 16.7564 19.6601 18.1364 18.8427 19.268C18.6887 19.4815 18.4916 19.6931 18.2924 19.8697C18.2903 19.8717 18.2862 19.8758 18.2841 19.8779C16.8548 21.0012 15.0845 21.7241 13.1376 21.8555L13.1356 21.8576Z" fill="white"/>
<path style="mix-blend-mode:multiply" opacity="0.4" d="M11.6861 0.528484C8.39204 0.752331 5.50047 2.2864 3.4817 4.58442C3.46733 4.60085 3.4509 4.61933 3.43652 4.63576C3.82878 5.02595 5.11437 5.79401 5.63395 6.11438C6.65668 5.01568 7.94023 4.15726 9.39628 3.64796C9.49691 3.51653 9.6037 3.38715 9.7146 3.26188C11.07 1.73192 12.9204 0.924837 15.0685 0.924837C15.3068 0.924837 15.7935 0.963856 15.8037 0.963856C14.5017 0.590094 13.1155 0.42991 11.6861 0.528484Z" fill="url(#paint0_linear_340_330)"/>
<path style="mix-blend-mode:multiply" opacity="0.4" d="M13.1364 21.8596C10.5837 22.0341 8.19734 21.1634 6.39421 19.615C6.22581 19.5924 6.05741 19.5657 5.88901 19.5308C3.88668 19.1221 2.26017 17.9228 1.18815 16.0642C1.06904 15.8568 0.962245 15.6473 0.865723 15.4317C2.25195 20.958 7.42926 24.8723 13.313 24.4718C13.3397 23.866 13.1611 22.4593 13.1344 21.8596H13.1364Z" fill="url(#paint1_linear_340_330)"/>
<path style="mix-blend-mode:multiply" opacity="0.4" d="M24.4703 11.6859C24.1006 11.6489 22.3016 11.7906 21.858 11.8646C21.9135 12.6778 21.8621 13.4746 21.7163 14.2427C21.7779 14.3947 21.8375 14.5507 21.8909 14.7089C22.5378 16.6475 22.3119 18.6539 21.2399 20.5145C21.1228 20.7178 20.9955 20.9129 20.862 21.0998C20.8599 21.1039 20.8558 21.108 20.8538 21.1101C20.8538 21.1101 20.8599 21.1059 20.862 21.1018C23.2997 18.7299 24.7188 15.3455 24.4703 11.688V11.6859Z" fill="url(#paint2_linear_340_330)"/>
<path style="mix-blend-mode:multiply" opacity="0.5" d="M15.1925 3.62128C15.4554 3.64797 15.7367 3.71369 15.9893 3.79789C16.0016 3.802 16.014 3.8061 16.0242 3.80816C17.0593 4.22915 18.006 4.83292 18.8234 5.57839C18.8234 5.57839 18.8275 5.58045 18.8295 5.5825C19.2239 5.13275 19.9817 4.63783 19.9817 4.63783C19.9817 4.63783 18.8213 3.45082 17.0449 3.08117C15.8024 2.82241 12.9992 2.57392 11.231 5.5825C11.231 5.5825 11.2371 5.57634 11.2474 5.56607C11.3788 5.36892 11.5164 5.17588 11.6746 4.99927C12.5309 4.032 13.8042 3.47958 15.1925 3.62128Z" fill="url(#paint3_linear_340_330)"/>
<path style="mix-blend-mode:multiply" opacity="0.5" d="M18.8435 19.27C18.6895 19.4835 18.4923 19.6951 18.2931 19.8717C18.2849 19.8799 18.2747 19.8881 18.2664 19.8963C17.3834 20.5822 16.3873 21.0997 15.3338 21.4345C15.3317 21.4345 15.3297 21.4345 15.3276 21.4365C15.5207 22.0033 15.57 22.9069 15.57 22.9069C15.57 22.9069 17.178 22.4962 18.3856 21.1429C19.2296 20.1961 20.8479 17.892 19.1269 14.8567C19.1269 14.8567 19.129 14.867 19.1331 14.8793C19.2399 15.0908 19.3364 15.3085 19.4103 15.5323C19.819 16.7563 19.6629 18.1363 18.8456 19.2679L18.8435 19.27Z" fill="url(#paint4_linear_340_330)"/>
<path style="mix-blend-mode:multiply" opacity="0.5" d="M3.46574 14.6102C3.35689 14.3679 3.27269 14.0927 3.2193 13.8319C3.21724 13.8196 3.21313 13.8073 3.21108 13.795C3.05911 12.688 3.1084 11.5668 3.34457 10.4865C3.34457 10.4845 3.34457 10.4824 3.34457 10.4804C2.75722 10.3654 1.95012 9.95465 1.95012 9.95465C1.95012 9.95465 1.50242 11.5544 2.07129 13.2754C2.4697 14.4809 3.65467 17.0335 7.14387 17.0602C7.14387 17.0602 7.1336 17.0582 7.12128 17.0541C6.8851 17.0397 6.64893 17.0151 6.41686 16.9678C5.1518 16.7091 4.03666 15.8835 3.46368 14.6102H3.46574Z" fill="url(#paint5_linear_340_330)"/>
<defs>
<linearGradient id="paint0_linear_340_330" x1="11.871" y1="2.24122" x2="7.96078" y2="3.37897" gradientUnits="userSpaceOnUse">
<stop stop-color="#231F20"/>
<stop offset="1" stop-color="white"/>
</linearGradient>
<linearGradient id="paint1_linear_340_330" x1="4.4843" y1="17.1506" x2="7.75368" y2="20.5638" gradientUnits="userSpaceOnUse">
<stop stop-color="#231F20"/>
<stop offset="1" stop-color="white"/>
</linearGradient>
<linearGradient id="paint2_linear_340_330" x1="22.0305" y1="16.6372" x2="23.1682" y2="13.1789" gradientUnits="userSpaceOnUse">
<stop stop-color="#231F20"/>
<stop offset="1" stop-color="white"/>
</linearGradient>
<linearGradient id="paint3_linear_340_330" x1="13.6522" y1="4.22094" x2="18.8932" y2="5.4203" gradientUnits="userSpaceOnUse">
<stop stop-color="#231F20"/>
<stop offset="1" stop-color="white"/>
</linearGradient>
<linearGradient id="paint4_linear_340_330" x1="19.0954" y1="17.6359" x2="15.4335" y2="21.5758" gradientUnits="userSpaceOnUse">
<stop stop-color="#231F20"/>
<stop offset="1" stop-color="white"/>
</linearGradient>
<linearGradient id="paint5_linear_340_330" x1="4.75378" y1="15.6443" x2="3.17379" y2="10.5049" gradientUnits="userSpaceOnUse">
<stop stop-color="#231F20"/>
<stop offset="1" stop-color="white"/>
</linearGradient>
</defs>
</svg>
