<svg width="1728" height="1529" viewBox="0 0 1728 1529" fill="none" xmlns="http://www.w3.org/2000/svg">
<g opacity="0.4" filter="url(#filter0_f_391_255)">
<path d="M429.609 628.428C283.842 636.326 202.2 742.543 179.599 794.664C120 850.197 219.887 971.718 388.012 995.093C556.136 1018.47 330.082 1154.07 457.264 1272.25C584.446 1390.43 703.644 1099.77 844.111 1018.11C956.485 952.774 912.421 869.8 876.343 836.48C831.481 826.365 730.65 794.216 686.223 746.537C630.69 686.938 611.816 618.556 429.609 628.428Z" fill="#080061"/>
<path d="M1343.95 420.22C1302.76 302.176 1191.46 291.08 1140.96 300.288C1078.78 280.295 996.977 429.793 1016.32 583.501C1035.67 737.21 864.875 620.821 792.399 791.418C719.923 962.015 999.95 904.93 1103.83 978.655C1186.94 1037.64 1248.48 955.814 1268.86 907.53C1267.06 864.419 1440.74 702.827 1471.6 639.778C1510.18 560.966 1395.43 567.775 1343.95 420.22Z" fill="#001D67"/>
<path d="M964.105 338.989C916.279 201.066 841.615 391.419 785.28 384.083C715.454 342.127 576.264 232.17 600.202 400.215C624.141 568.261 431.411 388.418 352.926 543.279C274.44 698.141 554.687 604.804 671.953 717.273C765.765 807.247 865.376 869.669 887.443 825.795C884.782 779.884 887.851 674.096 921.415 618.235C963.37 548.409 1023.89 511.393 964.105 338.989Z" fill="#005C79"/>
<path d="M977.714 972.861C1093.95 884.542 1203.18 881.142 1192.65 825.316C1210.83 745.909 1356.31 496.921 1204.02 571.896C1051.74 646.872 947.051 431.024 796.96 518.285C537.876 668.914 749.454 707.761 678.996 854.171C622.629 971.299 673.092 1091.81 721.651 1099.15C764.462 1082.35 817.131 1215.22 880.657 1229.77C960.064 1247.94 832.424 1083.26 977.714 972.861Z" fill="#003A7F"/>
</g>
<defs>
<filter id="filter0_f_391_255" x="12.2463" y="138.709" width="1617.13" height="1311.43" filterUnits="userSpaceOnUse" color-interpolation-filters="sRGB">
<feFlood flood-opacity="0" result="BackgroundImageFix"/>
<feBlend mode="normal" in="SourceGraphic" in2="BackgroundImageFix" result="shape"/>
<feGaussianBlur stdDeviation="75" result="effect1_foregroundBlur_391_255"/>
</filter>
</defs>
</svg>
