<svg width="34" height="38" viewBox="0 0 34 38" fill="none" xmlns="http://www.w3.org/2000/svg">
<g clip-path="url(#clip0_310_83)">
<path d="M8.06591 23.8033C9.80217 23.8033 15.7802 28.2946 15.7802 33.8374C15.7802 39.3802 0.36261 39.3802 0.36261 33.8374C0.36261 28.2946 6.34063 23.8033 8.06591 23.8033Z" fill="#4C9BF1"/>
<path d="M5.78018 27.5935C14.956 36.7402 23.7802 32.9391 26.5714 30.1458C29.3626 27.3635 26.4066 19.8927 19.956 13.4626C13.5164 7.03254 6.02194 4.08587 3.21974 6.86822C0.428534 9.66154 -3.39564 18.4468 5.78018 27.5935Z" fill="#4EB6FC"/>
<path d="M9.83518 23.5514C16.2857 29.9815 23.7802 32.9391 26.5824 30.1458C29.3736 27.3525 26.4176 19.8818 19.967 13.4626C13.5165 7.03254 6.02199 4.08587 3.2198 6.86822C0.417598 9.66154 3.38463 17.1323 9.82419 23.5514" fill="#0070EB"/>
<path d="M22.7692 11.1403C23.2308 11.6004 23.2308 12.3343 22.7692 12.7944L15.2637 20.2761C14.8022 20.7362 14.0549 20.7362 13.5934 20.2761C13.1319 19.816 13.1319 19.0712 13.5934 18.6111L21.0989 11.1403C21.5604 10.6803 22.3077 10.6803 22.7692 11.1403" fill="#4EB6FC"/>
<path d="M24.4286 9.47533C25.3626 10.3736 25.3846 11.8743 24.4835 12.7944C23.5824 13.7255 22.0769 13.7475 21.1538 12.8492C21.1319 12.8273 21.1209 12.8164 21.0989 12.7944C20.1978 11.8633 20.2088 10.3736 21.1538 9.46438C22.0659 8.58805 23.5165 8.58805 24.4396 9.46438" fill="#4EB6FC"/>
<path d="M29.0769 12.7506H29.022C28.4505 12.7177 28.011 12.2357 28.033 11.6661C28.033 11.6442 28.0989 9.43148 26.3956 7.73358C24.6923 6.03569 22.4835 6.10141 22.4505 6.10141C21.8791 6.13428 21.3956 5.68515 21.3626 5.12649C21.3297 4.55688 21.7802 4.07489 22.3516 4.04203C22.4835 4.02012 25.4945 3.91058 27.8681 6.27668C30.2418 8.64278 30.1209 11.6442 30.1099 11.7757C30.0769 12.3234 29.6264 12.7615 29.0769 12.7615" fill="#0070EB"/>
<path d="M32.7692 12.1701C32.1978 12.1701 31.7363 11.71 31.7363 11.1404C31.7363 11.0199 31.7583 10.8994 31.7912 10.7899C31.8242 10.6803 32.7143 7.81035 29.5055 4.62268C26.2637 1.3912 23.1539 2.13609 23.022 2.158C22.4725 2.3004 21.9121 1.97178 21.7583 1.41311C21.6154 0.865404 21.9341 0.295788 22.4835 0.153384C22.6594 0.109567 26.8462 -0.963941 30.978 3.15483C35.1429 7.30645 33.8132 11.3047 33.7473 11.48C33.6044 11.8962 33.2088 12.1701 32.7692 12.1701" fill="#0070EB"/>
<path d="M8.24173 35.1848C5.23074 35.1848 2.48349 34.5056 0.384591 33.3883C0.384591 33.5307 0.351624 33.6841 0.351624 33.8374C0.351624 39.3802 15.7692 39.3802 15.7692 33.8374C15.7692 33.7498 15.7582 33.6622 15.7472 33.5636C13.6923 34.5714 11.0769 35.1738 8.23074 35.1738" fill="#0070EB"/>
</g>
<defs>
<clipPath id="clip0_310_83">
<rect width="34" height="38" fill="white"/>
</clipPath>
</defs>
</svg>
