<svg width="31" height="35" viewBox="0 0 31 35" fill="none" xmlns="http://www.w3.org/2000/svg">
<g clip-path="url(#clip0_5_103)">
<path d="M7.34002 21.73C8.92002 21.73 14.36 25.83 14.36 30.89C14.36 35.95 0.330017 35.95 0.330017 30.89C0.330017 25.83 5.77002 21.73 7.34002 21.73Z" fill="#4C9BF1"/>
<path d="M5.25997 25.19C13.61 33.54 21.64 30.07 24.18 27.52C26.72 24.98 24.03 18.16 18.16 12.29C12.3 6.42003 5.47997 3.73003 2.92997 6.27003C0.389971 8.82003 -3.09003 16.84 5.25997 25.19Z" fill="#4EB6FC"/>
<path d="M8.95002 21.5C14.82 27.37 21.64 30.07 24.19 27.52C26.73 24.97 24.04 18.15 18.17 12.29C12.3 6.42003 5.48002 3.73003 2.93002 6.27003C0.380023 8.82003 3.08002 15.64 8.94002 21.5" fill="#0070EB"/>
<path d="M20.72 10.17C21.14 10.59 21.14 11.26 20.72 11.68L13.89 18.51C13.47 18.93 12.79 18.93 12.37 18.51C11.95 18.09 11.95 17.41 12.37 16.99L19.2 10.17C19.62 9.74998 20.3 9.74998 20.72 10.17Z" fill="#4EB6FC"/>
<path d="M22.23 8.64998C23.08 9.46998 23.1 10.84 22.28 11.68C21.46 12.53 20.09 12.55 19.25 11.73C19.23 11.71 19.22 11.7 19.2 11.68C18.38 10.83 18.39 9.46998 19.25 8.63998C20.08 7.83998 21.4 7.83998 22.24 8.63998" fill="#4EB6FC"/>
<path d="M26.46 11.64H26.41C25.89 11.61 25.49 11.17 25.51 10.65C25.51 10.63 25.57 8.61001 24.02 7.06001C22.47 5.51001 20.46 5.57001 20.43 5.57001C19.91 5.60001 19.47 5.19001 19.44 4.68001C19.41 4.16001 19.82 3.72001 20.34 3.69001C20.46 3.67001 23.2 3.57001 25.36 5.73001C27.52 7.89001 27.41 10.63 27.4 10.75C27.37 11.25 26.96 11.65 26.46 11.65" fill="#0070EB"/>
<path d="M29.82 11.11C29.3 11.11 28.88 10.69 28.88 10.17C28.88 10.06 28.9 9.95002 28.93 9.85002C28.96 9.75002 29.77 7.13002 26.85 4.22002C23.9 1.27002 21.07 1.95002 20.95 1.97002C20.45 2.10002 19.94 1.80002 19.8 1.29002C19.67 0.790017 19.96 0.270017 20.46 0.140017C20.62 0.100017 24.43 -0.879983 28.19 2.88002C31.98 6.67002 30.77 10.32 30.71 10.48C30.58 10.86 30.22 11.11 29.82 11.11Z" fill="#0070EB"/>
<path d="M7.50001 32.12C4.76001 32.12 2.26001 31.5 0.350007 30.48C0.350007 30.61 0.320007 30.75 0.320007 30.89C0.320007 35.95 14.35 35.95 14.35 30.89C14.35 30.81 14.34 30.73 14.33 30.64C12.46 31.56 10.08 32.11 7.49001 32.11" fill="#0070EB"/>
</g>
<defs>
<clipPath id="clip0_5_103">
<rect width="30.94" height="34.69" fill="white"/>
</clipPath>
</defs>
</svg>
