<svg width="25" height="25" viewBox="0 0 25 25" fill="none" xmlns="http://www.w3.org/2000/svg">
<path d="M7.25 8L10.25 10.25L7.25 12.5M11.75 12.5H14.75M5.75 20.75H19.25C19.8467 20.75 20.419 20.5129 20.841 20.091C21.2629 19.669 21.5 19.0967 21.5 18.5V6.5C21.5 5.90326 21.2629 5.33097 20.841 4.90901C20.419 4.48705 19.8467 4.25 19.25 4.25H5.75C5.15326 4.25 4.58097 4.48705 4.15901 4.90901C3.73705 5.33097 3.5 5.90326 3.5 6.5V18.5C3.5 19.0967 3.73705 19.669 4.15901 20.091C4.58097 20.5129 5.15326 20.75 5.75 20.75Z" stroke="#020617" stroke-width="1.5" stroke-linecap="round" stroke-linejoin="round"/>
</svg>
