<svg width="24" height="25" viewBox="0 0 24 25" fill="none" xmlns="http://www.w3.org/2000/svg">
<path d="M6.75 8L9.75 10.25L6.75 12.5M11.25 12.5H14.25M5.25 20.75H18.75C19.3467 20.75 19.919 20.5129 20.341 20.091C20.7629 19.669 21 19.0967 21 18.5V6.5C21 5.90326 20.7629 5.33097 20.341 4.90901C19.919 4.48705 19.3467 4.25 18.75 4.25H5.25C4.65326 4.25 4.08097 4.48705 3.65901 4.90901C3.23705 5.33097 3 5.90326 3 6.5V18.5C3 19.0967 3.23705 19.669 3.65901 20.091C4.08097 20.5129 4.65326 20.75 5.25 20.75Z" stroke="#F8FAFC" stroke-width="1.5" stroke-linecap="round" stroke-linejoin="round"/>
</svg>
