<svg width="26" height="29" viewBox="0 0 26 29" fill="none" xmlns="http://www.w3.org/2000/svg">
<g clip-path="url(#clip0_230_81)">
<path d="M25.4912 8.23071L17.6932 0.500432C16.9916 -0.145031 15.893 -0.106838 15.2416 0.588276C14.621 1.24902 14.621 2.26877 15.2416 2.93333L11.8995 6.24467L19.7015 13.9749L23.0435 10.6636C23.7219 11.3282 24.8167 11.3282 25.4951 10.6636C26.1697 9.99141 26.1735 8.90673 25.4951 8.23453" fill="#0070EB"/>
<path d="M16.4673 0H3.46538C1.55345 0 0 1.53918 0 3.43356V25.5664C0 27.4685 1.55345 29 3.46538 29H22.5346C24.4466 29 26 27.4646 26 25.5664V9.44515H18.1981C17.3308 9.44515 16.4673 8.5858 16.4673 7.72646V0Z" fill="#0070EB"/>
<path d="M22.5346 24.0425C22.5346 24.5123 22.1452 24.9019 21.6634 24.9019H4.33264C3.85466 24.9019 3.46533 24.5161 3.46533 24.0425C3.46533 23.5689 3.8508 23.1794 4.33264 23.1794H21.6673C22.1452 23.1794 22.5384 23.5613 22.5384 24.0425M22.5384 20.609C22.5384 21.0788 22.1491 21.4683 21.6673 21.4683H4.33264C3.85466 21.4683 3.46533 21.0826 3.46533 20.609C3.46533 20.1354 3.8508 19.7458 4.33264 19.7458H21.6673C22.1452 19.7458 22.5384 20.1278 22.5384 20.609ZM22.5384 17.1754C22.5384 17.649 22.1491 18.0348 21.6673 18.0348H4.33264C3.85466 18.0348 3.46533 17.6528 3.46533 17.1754C3.46533 16.698 3.8508 16.3161 4.33264 16.3161H21.6673C22.1452 16.3161 22.5384 16.698 22.5384 17.1754ZM22.5384 13.7419C22.5384 14.2155 22.1491 14.6012 21.6673 14.6012H4.33264C3.85466 14.6012 3.46533 14.2193 3.46533 13.7419C3.46533 13.2645 3.8508 12.8825 4.33264 12.8825H21.6673C22.1452 12.8825 22.5384 13.2645 22.5384 13.7419ZM12.1346 10.3083C12.1346 10.7819 11.7491 11.1677 11.2711 11.1677H4.33264C3.85466 11.1677 3.46533 10.7857 3.46533 10.3083C3.46533 9.8309 3.8508 9.44897 4.33264 9.44897H11.2673C11.7452 9.44897 12.1307 9.8309 12.1307 10.3083M12.1307 6.87475C12.1307 7.35217 11.7452 7.7341 11.2673 7.7341H4.33264C3.85466 7.7341 3.46533 7.35217 3.46533 6.87475C3.46533 6.39734 3.8508 6.01923 4.33264 6.01923H11.2673C11.7452 6.01923 12.1307 6.40116 12.1307 6.87475ZM16.4673 0H14.7365V7.72646C14.7365 9.62847 16.2861 11.16 18.2019 11.16H26.0038V9.44515H18.2019C17.3346 9.44515 16.4711 8.5858 16.4711 7.72646V0H16.4673Z" fill="#4EB6FC"/>
</g>
<defs>
<clipPath id="clip0_230_81">
<rect width="26" height="29" fill="white"/>
</clipPath>
</defs>
</svg>
