<svg width="33" height="38" viewBox="0 0 33 38" fill="none" xmlns="http://www.w3.org/2000/svg">
<g clip-path="url(#clip0_310_99)">
<path d="M32.3542 10.7849L22.4566 0.655612C21.5662 -0.190167 20.1718 -0.14012 19.345 0.770718C18.5573 1.63652 18.5573 2.97275 19.345 3.84355L15.1032 8.18254L25.0056 18.3119L29.2474 13.9729C30.1085 14.8437 31.498 14.8437 32.3591 13.9729C33.2153 13.0921 33.2202 11.6708 32.3591 10.7899" fill="#0070EB"/>
<path d="M20.9008 0H4.39837C1.97168 0 0 2.01686 0 4.49914V33.5009C0 35.9932 1.97168 38 4.39837 38H28.6016C31.0283 38 33 35.9881 33 33.5009V12.3764H23.0976C21.9967 12.3764 20.9008 11.2504 20.9008 10.1243V0V0Z" fill="#0070EB"/>
<path d="M28.6016 31.504C28.6016 32.1196 28.1075 32.6301 27.4959 32.6301H5.49919C4.89252 32.6301 4.39838 32.1246 4.39838 31.504C4.39838 30.8834 4.88763 30.373 5.49919 30.373H27.5008C28.1075 30.373 28.6065 30.8734 28.6065 31.504M28.6065 27.0049C28.6065 27.6204 28.1124 28.1309 27.5008 28.1309H5.49919C4.89252 28.1309 4.39838 27.6254 4.39838 27.0049C4.39838 26.3843 4.88763 25.8738 5.49919 25.8738H27.5008C28.1075 25.8738 28.6065 26.3743 28.6065 27.0049ZM28.6065 22.5057C28.6065 23.1263 28.1124 23.6318 27.5008 23.6318H5.49919C4.89252 23.6318 4.39838 23.1313 4.39838 22.5057C4.39838 21.8802 4.88763 21.3797 5.49919 21.3797H27.5008C28.1075 21.3797 28.6065 21.8802 28.6065 22.5057ZM28.6065 18.0066C28.6065 18.6272 28.1124 19.1326 27.5008 19.1326H5.49919C4.89252 19.1326 4.39838 18.6322 4.39838 18.0066C4.39838 17.381 4.88763 16.8805 5.49919 16.8805H27.5008C28.1075 16.8805 28.6065 17.381 28.6065 18.0066ZM15.4016 13.5074C15.4016 14.128 14.9124 14.6335 14.3057 14.6335H5.49919C4.89252 14.6335 4.39838 14.133 4.39838 13.5074C4.39838 12.8819 4.88763 12.3814 5.49919 12.3814H14.3008C14.9075 12.3814 15.3967 12.8819 15.3967 13.5074M15.3967 9.0083C15.3967 9.63387 14.9075 10.1343 14.3008 10.1343H5.49919C4.89252 10.1343 4.39838 9.63387 4.39838 9.0083C4.39838 8.38272 4.88763 7.88726 5.49919 7.88726H14.3008C14.9075 7.88726 15.3967 8.38773 15.3967 9.0083ZM20.9008 0H18.7041V10.1243C18.7041 12.6166 20.6709 14.6235 23.1025 14.6235H33.0049V12.3764H23.1025C22.0016 12.3764 20.9057 11.2504 20.9057 10.1243V0H20.9008Z" fill="#4EB6FC"/>
</g>
<defs>
<clipPath id="clip0_310_99">
<rect width="33" height="38" fill="white"/>
</clipPath>
</defs>
</svg>
