<svg width="34" height="38" viewBox="0 0 34 38" fill="none" xmlns="http://www.w3.org/2000/svg">
<path d="M28.623 16.2185L5.37698 5.06189" stroke="#35ACFC" stroke-width="1.13" stroke-miterlimit="10"/>
<path d="M13.0025 32.9381L5.37698 5.06189" stroke="#35ACFC" stroke-width="1.13" stroke-miterlimit="10"/>
<path d="M28.623 16.2185L13.0026 32.9381" stroke="#35ACFC" stroke-width="1.13" stroke-miterlimit="10"/>
<path d="M5.377 10.1238C8.34663 10.1238 10.754 7.8575 10.754 5.06189C10.754 2.26629 8.34663 0 5.377 0C2.40736 0 0 2.26629 0 5.06189C0 7.8575 2.40736 10.1238 5.377 10.1238Z" fill="#0070EB"/>
<path d="M28.623 21.2804C31.5926 21.2804 34 19.0141 34 16.2185C34 13.4229 31.5926 11.1566 28.623 11.1566C25.6534 11.1566 23.246 13.4229 23.246 16.2185C23.246 19.0141 25.6534 21.2804 28.623 21.2804Z" fill="#0070EB"/>
<path d="M13.0025 38C15.9722 38 18.3795 35.7337 18.3795 32.9381C18.3795 30.1425 15.9722 27.8762 13.0025 27.8762C10.0329 27.8762 7.62555 30.1425 7.62555 32.9381C7.62555 35.7337 10.0329 38 13.0025 38Z" fill="#0070EB"/>
</svg>
