<svg width="26" height="18" viewBox="0 0 26 18" fill="none" xmlns="http://www.w3.org/2000/svg">
<g clip-path="url(#clip0_303_16)">
<path d="M24.734 12.1406C23.4794 12.5231 21.8554 12.7317 20.1481 12.7317C18.0578 12.7317 15.8257 12.4072 14.4989 11.6956L14.5214 13.5244C15.0058 14.0806 17.0847 14.7806 20.1413 14.7806C21.7721 14.7806 23.2993 14.5835 24.4525 14.2243C25.6598 13.8419 25.9189 13.4502 25.9189 13.369C25.9189 13.2532 25.9909 13.1488 25.9977 13.063V11.6168C25.5922 11.8416 25.171 12.0155 24.734 12.1429V12.1406ZM20.1481 15.9418C18.6142 15.9418 17.1231 15.7679 15.9428 15.4505C15.4585 15.3299 14.9923 15.1561 14.544 14.9289L14.5621 16.2362L14.5665 16.5885V16.6C14.5665 16.7276 14.9269 17.11 15.9991 17.4507C17.1298 17.803 18.6412 18.0001 20.2652 18.0001C21.8892 18.0001 23.4007 17.7983 24.5494 17.4322C25.7477 17.0497 25.9932 16.6511 25.9932 16.57V14.8061C25.6553 15.031 25.1846 15.2048 24.7724 15.3322C23.5132 15.7263 21.8825 15.9394 20.1458 15.9394L20.1481 15.9418ZM16.1229 11.0953C17.2245 11.4012 18.657 11.5751 20.1481 11.5751C21.7495 11.5751 23.2723 11.385 24.4255 11.0304C25.6734 10.648 25.9481 10.2493 25.9549 10.1635V10.1589C25.9391 10.0616 25.6508 9.69071 24.4706 9.31986C23.3285 8.96061 21.7564 8.77054 20.1481 8.77054H20.103C18.5962 8.77054 17.1636 8.94438 16.0622 9.26191C14.9652 9.57482 14.544 9.92712 14.4494 10.1056C14.4652 10.1566 14.4764 10.2099 14.4764 10.2609C14.6116 10.4579 15.0666 10.7986 16.1229 11.093V11.0953ZM19.5242 7.60238V6.05872C19.1255 6.28354 18.7087 6.46434 18.2696 6.59182C17.0104 6.98584 15.3638 7.19907 13.6273 7.19907C12.778 7.19907 11.9244 7.14113 11.082 7.03219C11.5325 7.68581 11.8749 8.4136 12.0821 9.18311C12.5663 9.22251 13.0821 9.24569 13.6273 9.24569H13.6723C14.0664 8.79372 14.7579 8.4252 15.7468 8.13546C16.7987 7.82951 18.1186 7.6441 19.5242 7.60238ZM13.3795 12.4442L13.357 10.5182C13.3457 10.4788 13.3344 10.437 13.3299 10.3976C12.9763 10.3907 12.6339 10.3791 12.3006 10.3582C12.3163 10.59 12.3276 10.8148 12.3276 11.0397C12.3276 11.4916 12.2825 11.9482 12.1992 12.3933C12.5753 12.4211 12.974 12.4396 13.3795 12.4442ZM13.3908 13.6078C12.8682 13.6009 12.3614 13.573 11.8793 13.5336C11.6203 14.222 11.2554 14.8641 10.8004 15.4365C11.6722 15.5872 12.5438 15.6613 13.4133 15.6729L13.3908 13.8094C13.3795 13.7398 13.3795 13.6774 13.3908 13.6078ZM11.091 9.88308C10.8388 8.63379 10.1923 7.5004 9.24624 6.67294C8.66736 6.15144 7.98712 5.76436 7.25733 5.53258C6.71673 5.3657 6.16039 5.27763 5.59953 5.27763C4.20526 5.27763 2.8628 5.81535 1.82893 6.78187C-0.459559 8.9212 -0.621735 12.5717 1.45727 14.9266C3.53629 17.2815 7.08389 17.4553 9.37238 15.3091C10.5414 14.222 11.2103 12.6714 11.2059 11.0466C11.2059 10.6595 11.1675 10.2655 11.0932 9.88308H11.091ZM13.6362 3.97735C11.9784 3.97735 10.3995 3.78034 9.17867 3.41644C8.75745 3.30055 8.35202 3.1383 7.96459 2.93665L8.00289 4.56838C8.63357 4.81175 9.22822 5.15942 9.75754 5.59284C9.76881 5.5998 9.78457 5.5998 9.80259 5.60443C10.8815 5.88721 12.242 6.03786 13.6295 6.03786C15.231 6.03786 16.81 5.83622 17.9519 5.47695C19.1727 5.09452 19.4363 4.69585 19.4363 4.62169C19.4363 4.5058 19.4634 4.39686 19.5264 4.29719V2.85089C19.1278 3.07573 18.7066 3.25651 18.2785 3.37239C17.0194 3.76642 15.3729 3.97966 13.6362 3.97966V3.97735ZM9.48275 2.3178C10.6022 2.65388 12.0731 2.83931 13.625 2.83931C15.177 2.83931 16.8054 2.6307 17.9475 2.2784C19.1727 1.89597 19.4363 1.50425 19.4363 1.42313C19.4363 1.342 19.1727 0.947982 17.9475 0.567865C16.801 0.208607 15.222 0.00695801 13.6183 0.00695801C12.0145 0.00695801 10.4761 0.208607 9.34084 0.567865C8.26642 0.90858 7.89027 1.29565 7.89027 1.41849C7.89702 1.42313 7.90152 1.43009 7.90152 1.43472C7.92855 1.5622 8.27318 1.96086 9.48049 2.32012L9.48275 2.3178Z" fill="#0070EB"/>
<path d="M5.60635 6.3833C5.50274 6.3833 5.39913 6.38794 5.29551 6.3949C4.05217 6.48297 2.96198 7.07633 2.20065 7.97099C2.20065 7.97099 2.19164 7.9849 2.18488 7.99186C1.42806 8.88884 1.00235 10.0825 1.08794 11.3619C1.09695 11.4848 1.11046 11.603 1.12624 11.7235V11.7397C1.13975 11.8185 1.15327 11.895 1.16903 11.9738V11.9785C1.18255 12.048 1.19831 12.1175 1.21633 12.1847C1.73891 14.331 3.69403 15.8515 5.91268 15.6962C8.40839 15.5224 10.2914 13.2996 10.1225 10.7315C9.96033 8.27231 7.96917 6.38794 5.61086 6.38794L5.60635 6.3833ZM2.19164 11.8603C2.1511 11.7675 2.11957 11.6586 2.09929 11.5589C2.08803 11.4709 2.07676 11.3805 2.07 11.2901C1.95963 9.62126 2.96648 8.13556 4.43058 7.6071H4.42832C3.899 8.31635 3.72106 9.19247 3.73006 9.86463C2.49572 10.4603 2.22994 11.1672 2.41013 11.6795C2.41463 11.6934 2.41914 11.7073 2.4259 11.7212C2.58808 12.1175 3.02956 12.3053 3.41472 12.1384C3.79989 11.9715 3.98234 11.5172 3.82016 11.1209C3.80664 11.0861 3.78863 11.0537 3.77061 11.0235C3.8089 10.998 3.8517 10.9702 3.89674 10.9447C4.03414 11.4361 4.23912 11.8533 4.47562 12.201C4.56122 12.3331 4.65582 12.4582 4.75493 12.5811C4.44183 12.7225 4.07018 12.8198 3.70078 12.8198C3.56789 12.8198 3.43499 12.8082 3.30661 12.7804C2.82909 12.6808 2.40787 12.3586 2.19164 11.8649V11.8603ZM7.99619 13.6704C7.93763 13.7539 7.8633 13.835 7.78897 13.9046H7.78672C7.24614 14.3449 6.57941 14.6253 5.84511 14.6764C4.88106 14.7436 3.98234 14.4052 3.3021 13.8049C4.16028 13.9254 4.98693 13.645 5.55004 13.302C6.6695 14.1039 7.39705 13.988 7.73942 13.5708C7.74843 13.5592 7.75744 13.5477 7.76645 13.536C8.01872 13.1929 7.95566 12.7063 7.62229 12.4443C7.29118 12.1847 6.81591 12.2496 6.56139 12.5927C6.53886 12.6228 6.52085 12.6529 6.50283 12.6854C6.46228 12.6645 6.41949 12.639 6.37443 12.6135C6.71906 12.245 6.96683 11.8533 7.14026 11.4685C7.20784 11.3272 7.26866 11.1788 7.32047 11.0282C7.69211 11.3109 8.05251 11.7281 8.21243 12.2218C8.3656 12.697 8.30704 13.2324 7.99845 13.6728L7.99619 13.6704ZM4.818 10.5623C5.1401 10.4835 5.45544 10.4557 5.75727 10.4719C5.77303 10.4719 5.78879 10.4719 5.80457 10.4742C5.99377 10.4904 6.18974 10.5252 6.3947 10.5832C6.30011 10.9076 6.16496 11.2043 6.00279 11.4639C5.99377 11.4778 5.98476 11.4917 5.97576 11.5056C5.86764 11.6679 5.73924 11.8255 5.58834 11.9785C5.36309 11.7305 5.18064 11.4639 5.04325 11.1881C5.03649 11.1742 5.02972 11.1603 5.02071 11.1441C4.93962 10.9656 4.87206 10.7732 4.818 10.5623ZM9.07963 11.7165V11.7119C8.74852 10.8868 8.09982 10.2911 7.52994 9.95966C7.64482 8.55971 7.18532 7.97099 6.66275 7.87596C6.64923 7.87365 6.63347 7.87132 6.61995 7.86901C6.2055 7.81339 5.82709 8.1147 5.77303 8.54117C5.71897 8.96764 6.01179 9.35703 6.42624 9.41266C6.46228 9.41729 6.49832 9.41962 6.53436 9.41729C6.53661 9.46365 6.53886 9.51465 6.53886 9.56795C6.05684 9.44511 5.6041 9.42193 5.19415 9.45901C5.04099 9.47061 4.88557 9.48915 4.7324 9.51927C4.78421 9.04645 4.9554 8.51567 5.29101 8.12861C5.61311 7.75311 6.09513 7.53756 6.6177 7.5932C6.71681 7.60478 6.82267 7.62796 6.91952 7.66273C6.92403 7.66273 6.92854 7.66504 6.93304 7.66736C8.14711 8.17496 9.03908 9.36167 9.13368 10.7941C9.15395 11.1093 9.13368 11.4199 9.07963 11.7165Z" fill="#4EB6FC"/>
</g>
<defs>
<clipPath id="clip0_303_16">
<rect width="26" height="18" fill="white"/>
</clipPath>
</defs>
</svg>
