<svg width="24" height="25" viewBox="0 0 24 25" fill="none" xmlns="http://www.w3.org/2000/svg">
<path d="M8 4.5H6C4.89543 4.5 4 5.39543 4 6.5V18.5C4 19.6046 4.89543 20.5 6 20.5H18C19.1046 20.5 20 19.6046 20 18.5V6.5C20 5.39543 19.1046 4.5 18 4.5H16M12 3.5V11.5M12 11.5L15 8.5M12 11.5L9 8.5M4 13.5H6.58579C6.851 13.5 7.10536 13.6054 7.29289 13.7929L9.70711 16.2071C9.89464 16.3946 10.149 16.5 10.4142 16.5H13.5858C13.851 16.5 14.1054 16.3946 14.2929 16.2071L16.7071 13.7929C16.8946 13.6054 17.149 13.5 17.4142 13.5H20" stroke="#F8FAFC" stroke-width="1.5" stroke-linecap="round" stroke-linejoin="round"/>
</svg>
