<svg width="38" height="29" viewBox="0 0 38 29" fill="none" xmlns="http://www.w3.org/2000/svg">
<g clip-path="url(#clip0_310_96)">
<path d="M36.1501 19.5599C34.3164 20.1761 31.9429 20.5121 29.4475 20.5121C26.3925 20.5121 23.1301 19.9893 21.1911 18.8429L21.224 21.7892C21.9318 22.6855 24.9703 23.8132 29.4376 23.8132C31.821 23.8132 34.053 23.4958 35.7386 22.917C37.5031 22.3008 37.8817 21.6697 37.8817 21.539C37.8817 21.3523 37.987 21.1843 37.9969 21.0461V18.716C37.4043 19.0782 36.7887 19.3583 36.1501 19.5636V19.5599ZM29.4475 25.684C27.2056 25.684 25.0263 25.404 23.3012 24.8924C22.5935 24.6982 21.912 24.4181 21.2569 24.0522L21.2832 26.1583L21.2898 26.7259V26.7446C21.2898 26.9499 21.8165 27.5661 23.3836 28.115C25.0362 28.6826 27.2451 29 29.6187 29C31.9922 29 34.2012 28.6751 35.8801 28.0851C37.6315 27.469 37.9903 26.8267 37.9903 26.696V23.8543C37.4965 24.2165 36.8085 24.4966 36.206 24.7019C34.3658 25.3368 31.9824 25.6803 29.4442 25.6803L29.4475 25.684ZM23.5646 17.8758C25.1744 18.3687 27.2682 18.6488 29.4475 18.6488C31.7881 18.6488 34.0135 18.3425 35.6991 17.7712C37.5229 17.1551 37.9245 16.5128 37.9344 16.3746V16.3671C37.9113 16.2103 37.4899 15.6128 35.7649 15.0154C34.0958 14.4365 31.798 14.1303 29.4475 14.1303H29.3816C27.1793 14.1303 25.0855 14.4104 23.4757 14.922C21.8725 15.4261 21.2569 15.9937 21.1186 16.2813C21.1417 16.3634 21.1581 16.4493 21.1581 16.5314C21.3557 16.8489 22.0206 17.3978 23.5646 17.872V17.8758ZM28.5356 12.2483V9.76129C27.9529 10.1235 27.3439 10.4148 26.7019 10.6202C24.8617 11.255 22.4552 11.5985 19.917 11.5985C18.6759 11.5985 17.4283 11.5052 16.197 11.3297C16.8554 12.3827 17.3558 13.5553 17.6587 14.795C18.3665 14.8585 19.1204 14.8959 19.917 14.8959H19.9829C20.559 14.1677 21.5696 13.5739 23.0148 13.1072C24.5522 12.6142 26.4814 12.3155 28.5356 12.2483V12.2483ZM19.5549 20.0491L19.522 16.9459C19.5055 16.8825 19.4891 16.8152 19.4825 16.7518C18.9656 16.7406 18.4652 16.7219 17.978 16.6883C18.0011 17.0617 18.0175 17.4239 18.0175 17.7861C18.0175 18.5143 17.9517 19.25 17.8299 19.9669C18.3797 20.0117 18.9623 20.0416 19.5549 20.0491V20.0491ZM19.5714 21.9237C18.8076 21.9125 18.0669 21.8677 17.3624 21.8042C16.9838 22.9132 16.4505 23.9476 15.7855 24.87C17.0595 25.1127 18.3336 25.2322 19.6043 25.2509L19.5714 22.2485C19.5549 22.1365 19.5549 22.0357 19.5714 21.9237ZM16.2102 15.9228C15.8415 13.91 14.8967 12.084 13.514 10.7509C12.668 9.91066 11.6738 9.28705 10.6071 8.91363C9.81706 8.64476 9.00393 8.50286 8.18421 8.50286C6.14644 8.50286 4.18438 9.3692 2.67334 10.9264C-0.671374 14.3731 -0.908401 20.2545 2.13015 24.0484C5.1687 27.8424 10.3537 28.1225 13.6984 24.6646C15.4069 22.9132 16.3847 20.415 16.3781 17.7973C16.3781 17.1737 16.3221 16.5389 16.2135 15.9228H16.2102ZM19.9302 6.40796C17.5073 6.40796 15.1995 6.09055 13.4153 5.50428C12.7996 5.31757 12.2071 5.05617 11.6408 4.73129L11.6968 7.36019C12.6186 7.75228 13.4877 8.31241 14.2613 9.01071C14.2778 9.02192 14.3008 9.02192 14.3272 9.02939C15.904 9.48496 17.8924 9.72769 19.9203 9.72769C22.261 9.72769 24.5687 9.40281 26.2377 8.824C28.022 8.20786 28.4072 7.56557 28.4072 7.44607C28.4072 7.25936 28.4467 7.08385 28.5389 6.92328V4.59313C27.9562 4.95535 27.3406 5.24662 26.7151 5.43333C24.8748 6.06815 22.4684 6.41169 19.9302 6.41169V6.40796ZM13.8597 3.73425C15.4958 4.27572 17.6455 4.57445 19.9137 4.57445C22.182 4.57445 24.5621 4.23837 26.2312 3.67077C28.022 3.05462 28.4072 2.42354 28.4072 2.29284C28.4072 2.16214 28.022 1.52733 26.2312 0.914913C24.5555 0.336108 22.2478 0.0112305 19.9039 0.0112305C17.5599 0.0112305 15.3115 0.336108 13.6523 0.914913C12.082 1.46384 11.5322 2.08746 11.5322 2.28537C11.5421 2.29284 11.5487 2.30405 11.5487 2.31151C11.5882 2.5169 12.0919 3.15918 13.8564 3.73799L13.8597 3.73425Z" fill="#0070EB"/>
<path d="M8.19391 10.2841C8.04248 10.2841 7.89104 10.2915 7.73961 10.3027C5.92241 10.4446 4.32906 11.4006 3.21635 12.842C3.21635 12.842 3.20318 12.8644 3.19331 12.8756C2.08718 14.3208 1.46499 16.2439 1.59008 18.3052C1.60325 18.5031 1.623 18.6935 1.64605 18.8877V18.9139C1.6658 19.0408 1.68555 19.164 1.7086 19.291V19.2985C1.72835 19.4105 1.75139 19.5225 1.77773 19.6308C2.54148 23.0887 5.39897 25.5384 8.64163 25.2882C12.2892 25.0081 15.0414 21.427 14.7944 17.2895C14.5574 13.3275 11.6473 10.2915 8.2005 10.2915L8.19391 10.2841ZM3.20318 19.108C3.14392 18.9587 3.09784 18.7832 3.06821 18.6226C3.05175 18.4807 3.03529 18.335 3.02541 18.1894C2.8641 15.5008 4.33564 13.1071 6.47547 12.2557H6.47218C5.69855 13.3984 5.43848 14.8099 5.45164 15.8929C3.64761 16.8526 3.25915 17.9915 3.52251 18.8168C3.52909 18.8392 3.53568 18.8616 3.54555 18.884C3.78258 19.5225 4.42782 19.825 4.99076 19.5561C5.5537 19.2873 5.82035 18.5554 5.58333 17.9168C5.56357 17.8608 5.53724 17.8085 5.5109 17.76C5.56687 17.7189 5.62941 17.6741 5.69525 17.633C5.89607 18.4247 6.19564 19.0968 6.54131 19.657C6.66641 19.8698 6.80467 20.0715 6.94952 20.2694C6.49193 20.4972 5.94874 20.654 5.40885 20.654C5.21462 20.654 5.02039 20.6353 4.83274 20.5905C4.13483 20.4299 3.51922 19.9109 3.20318 19.1155V19.108ZM11.6868 22.0245C11.6012 22.1589 11.4925 22.2896 11.3839 22.4016H11.3806C10.5905 23.1111 9.61607 23.563 8.54287 23.6451C7.13388 23.7534 5.82035 23.2082 4.82616 22.241C6.08042 22.4352 7.2886 21.9834 8.11161 21.4307C9.74775 22.7228 10.8111 22.5361 11.3115 21.8639C11.3246 21.8452 11.3378 21.8265 11.351 21.8079C11.7197 21.2552 11.6275 20.471 11.1403 20.0491C10.6564 19.6308 9.96174 19.7354 9.58974 20.288C9.55682 20.3366 9.53048 20.3851 9.50414 20.4374C9.44489 20.4038 9.38234 20.3627 9.3165 20.3217C9.82018 19.7279 10.1823 19.0968 10.4358 18.4769C10.5346 18.2492 10.6234 18.0102 10.6992 17.7674C11.2423 18.223 11.7691 18.8952 12.0028 19.6906C12.2267 20.4561 12.1411 21.3187 11.6901 22.0282L11.6868 22.0245ZM7.0417 17.0169C7.51246 16.8899 7.97335 16.8451 8.41448 16.8712C8.43752 16.8712 8.46057 16.8712 8.48361 16.875C8.76014 16.9011 9.04655 16.9571 9.34613 17.0505C9.20786 17.5733 9.01034 18.0512 8.77331 18.4695C8.76014 18.4919 8.74697 18.5143 8.73381 18.5367C8.57579 18.7981 8.38814 19.052 8.16758 19.2985C7.83837 18.8989 7.57172 18.4695 7.3709 18.0251C7.36103 18.0027 7.35115 17.9803 7.33798 17.9542C7.21947 17.6666 7.12071 17.3567 7.0417 17.0169V17.0169ZM13.2702 18.8765V18.869C12.7863 17.5397 11.8382 16.58 11.0053 16.046C11.1732 13.7905 10.5016 12.842 9.73788 12.6889C9.71813 12.6852 9.69508 12.6814 9.67533 12.6777C9.06959 12.5881 8.51653 13.0735 8.43752 13.7606C8.35851 14.4477 8.78648 15.0751 9.39221 15.1647C9.44489 15.1722 9.49756 15.1759 9.55023 15.1722C9.55352 15.2468 9.55682 15.329 9.55682 15.4149C8.85232 15.217 8.19062 15.1796 7.59147 15.2394C7.36761 15.258 7.14046 15.2879 6.9166 15.3365C6.99232 14.5747 7.24251 13.7195 7.73303 13.0959C8.20379 12.491 8.90828 12.1437 9.67204 12.2333C9.81689 12.252 9.97161 12.2893 10.1132 12.3454C10.1198 12.3454 10.1263 12.3491 10.1329 12.3528C11.9073 13.1706 13.211 15.0825 13.3492 17.3903C13.3789 17.8981 13.3492 18.3985 13.2702 18.8765V18.8765Z" fill="#4EB6FC"/>
</g>
<defs>
<clipPath id="clip0_310_96">
<rect width="38" height="29" fill="white"/>
</clipPath>
</defs>
</svg>
