<svg width="25" height="25" viewBox="0 0 25 25" fill="none" xmlns="http://www.w3.org/2000/svg">
<path d="M8.5 4.5H6.5C5.39543 4.5 4.5 5.39543 4.5 6.5V18.5C4.5 19.6046 5.39543 20.5 6.5 20.5H18.5C19.6046 20.5 20.5 19.6046 20.5 18.5V6.5C20.5 5.39543 19.6046 4.5 18.5 4.5H16.5M12.5 3.5V11.5M12.5 11.5L15.5 8.5M12.5 11.5L9.5 8.5M4.5 13.5H7.08579C7.351 13.5 7.60536 13.6054 7.79289 13.7929L10.2071 16.2071C10.3946 16.3946 10.649 16.5 10.9142 16.5H14.0858C14.351 16.5 14.6054 16.3946 14.7929 16.2071L17.2071 13.7929C17.3946 13.6054 17.649 13.5 17.9142 13.5H20.5" stroke="#020617" stroke-width="1.5" stroke-linecap="round" stroke-linejoin="round"/>
</svg>
