<svg width="38" height="30" viewBox="0 0 38 30" fill="none" xmlns="http://www.w3.org/2000/svg">
<g clip-path="url(#clip0_310_96)">
<path d="M36.1501 20.2344C34.3164 20.8718 31.9429 21.2194 29.4475 21.2194C26.3925 21.2194 23.1301 20.6786 21.1911 19.4927L21.224 22.5406C21.9318 23.4677 24.9703 24.6343 29.4376 24.6343C31.821 24.6343 34.053 24.306 35.7386 23.7072C37.5031 23.0698 37.8817 22.417 37.8817 22.2817C37.8817 22.0886 37.987 21.9148 37.9969 21.7718V19.3613C37.4043 19.736 36.7887 20.0258 36.1501 20.2382V20.2344ZM29.4475 26.5697C27.2056 26.5697 25.0263 26.2799 23.3012 25.7507C22.5935 25.5498 21.912 25.2601 21.2569 24.8815L21.2832 27.0603L21.2898 27.6474V27.6668C21.2898 27.8792 21.8165 28.5166 23.3836 29.0845C25.0362 29.6717 27.2451 30 29.6187 30C31.9922 30 34.2012 29.6639 35.8801 29.0536C37.6315 28.4162 37.9903 27.7517 37.9903 27.6165V24.6768C37.4965 25.0515 36.8085 25.3412 36.206 25.5537C34.3658 26.2104 31.9824 26.5658 29.4442 26.5658L29.4475 26.5697ZM23.5646 18.4922C25.1744 19.0021 27.2682 19.2918 29.4475 19.2918C31.7881 19.2918 34.0135 18.975 35.6991 18.384C37.5229 17.7466 37.9245 17.0822 37.9344 16.9392V16.9315C37.9113 16.7693 37.4899 16.1512 35.7649 15.5331C34.0958 14.9343 31.798 14.6176 29.4475 14.6176H29.3816C27.1793 14.6176 25.0855 14.9073 23.4757 15.4365C21.8725 15.958 21.2569 16.5452 21.1186 16.8427C21.1417 16.9276 21.1581 17.0165 21.1581 17.1015C21.3557 17.4298 22.0206 17.9977 23.5646 18.4883V18.4922ZM28.5356 12.6706V10.0979C27.9529 10.4726 27.3439 10.7739 26.7019 10.9864C24.8617 11.6431 22.4552 11.9985 19.917 11.9985C18.6759 11.9985 17.4283 11.9019 16.197 11.7203C16.8554 12.8097 17.3558 14.0227 17.6587 15.3052C18.3665 15.3709 19.1204 15.4095 19.917 15.4095H19.9829C20.559 14.6562 21.5696 14.042 23.0148 13.5591C24.5522 13.0492 26.4814 12.7402 28.5356 12.6706V12.6706ZM19.5549 20.7404L19.522 17.5303C19.5055 17.4646 19.4891 17.3951 19.4825 17.3294C18.9656 17.3178 18.4652 17.2985 17.978 17.2637C18.0011 17.65 18.0175 18.0247 18.0175 18.3994C18.0175 19.1527 17.9517 19.9137 17.8299 20.6554C18.3797 20.7018 18.9623 20.7327 19.5549 20.7404V20.7404ZM19.5714 22.6796C18.8076 22.668 18.0669 22.6217 17.3624 22.556C16.9838 23.7033 16.4505 24.7734 15.7855 25.7275C17.0595 25.9786 18.3336 26.1022 19.6043 26.1216L19.5714 23.0157C19.5549 22.8998 19.5549 22.7955 19.5714 22.6796ZM16.2102 16.4718C15.8415 14.3897 14.8967 12.5007 13.514 11.1216C12.668 10.2524 11.6738 9.60727 10.6071 9.22097C9.81706 8.94283 9.00393 8.79604 8.18421 8.79604C6.14644 8.79604 4.18438 9.69225 2.67334 11.3031C-0.671374 14.8687 -0.908401 20.9529 2.13015 24.8777C5.1687 28.8025 10.3537 29.0922 13.6984 25.5151C15.4069 23.7033 16.3847 21.119 16.3781 18.411C16.3781 17.7659 16.3221 17.1092 16.2135 16.4718H16.2102ZM19.9302 6.6289C17.5073 6.6289 15.1995 6.30055 13.4153 5.69406C12.7996 5.50091 12.2071 5.2305 11.6408 4.89442L11.6968 7.61396C12.6186 8.01958 13.4877 8.59903 14.2613 9.32141C14.2778 9.333 14.3008 9.333 14.3272 9.34072C15.904 9.81201 17.8924 10.0631 19.9203 10.0631C22.261 10.0631 24.5687 9.72702 26.2377 9.12826C28.022 8.49086 28.4072 7.82643 28.4072 7.70281C28.4072 7.50966 28.4467 7.3281 28.5389 7.162V4.75149C27.9562 5.1262 27.3406 5.42751 26.7151 5.62066C24.8748 6.27737 22.4684 6.63277 19.9302 6.63277V6.6289ZM13.8597 3.863C15.4958 4.42313 17.6455 4.73217 19.9137 4.73217C22.182 4.73217 24.5621 4.3845 26.2312 3.79733C28.022 3.15994 28.4072 2.50709 28.4072 2.37188C28.4072 2.23668 28.022 1.57997 26.2312 0.946441C24.5555 0.347677 22.2478 0.0115967 19.9039 0.0115967C17.5599 0.0115967 15.3115 0.347677 13.6523 0.946441C12.082 1.5143 11.5322 2.15942 11.5322 2.36416C11.5421 2.37188 11.5487 2.38347 11.5487 2.3912C11.5882 2.60366 12.0919 3.2681 13.8564 3.86686L13.8597 3.863Z" fill="#0070EB"/>
<path d="M8.19391 10.6387C8.04248 10.6387 7.89104 10.6464 7.73961 10.658C5.92241 10.8048 4.32906 11.7937 3.21635 13.2848C3.21635 13.2848 3.20318 13.308 3.19331 13.3196C2.08718 14.8146 1.46499 16.804 1.59008 18.9364C1.60325 19.1411 1.623 19.3381 1.64605 19.539V19.566C1.6658 19.6974 1.68555 19.8249 1.7086 19.9562V19.9639C1.72835 20.0798 1.75139 20.1957 1.77773 20.3077C2.54148 23.8849 5.39897 26.419 8.64163 26.1602C12.2892 25.8705 15.0414 22.1658 14.7944 17.8856C14.5574 13.787 11.6473 10.6464 8.2005 10.6464L8.19391 10.6387ZM3.20318 19.7669C3.14392 19.6124 3.09784 19.4308 3.06821 19.2647C3.05175 19.1179 3.03529 18.9673 3.02541 18.8166C2.8641 16.0353 4.33564 13.5591 6.47547 12.6783H6.47218C5.69855 13.8604 5.43848 15.3206 5.45164 16.4409C3.64761 17.4337 3.25915 18.6119 3.52251 19.4656C3.52909 19.4888 3.53568 19.512 3.54555 19.5351C3.78258 20.1957 4.42782 20.5086 4.99076 20.2305C5.5537 19.9523 5.82035 19.1952 5.58333 18.5346C5.56357 18.4767 5.53724 18.4226 5.5109 18.3724C5.56687 18.3299 5.62941 18.2835 5.69525 18.241C5.89607 19.06 6.19564 19.7553 6.54131 20.3348C6.66641 20.555 6.80467 20.7636 6.94952 20.9683C6.49193 21.204 5.94874 21.3662 5.40885 21.3662C5.21462 21.3662 5.02039 21.3469 4.83274 21.3005C4.13483 21.1344 3.51922 20.5975 3.20318 19.7746V19.7669ZM11.6868 22.7839C11.6012 22.923 11.4925 23.0582 11.3839 23.1741H11.3806C10.5905 23.9081 9.61607 24.3755 8.54287 24.4605C7.13388 24.5725 5.82035 24.0085 4.82616 23.008C6.08042 23.2088 7.2886 22.7414 8.11161 22.1697C9.74775 23.5063 10.8111 23.3131 11.3115 22.6178C11.3246 22.5985 11.3378 22.5792 11.351 22.5599C11.7197 21.9881 11.6275 21.1769 11.1403 20.7404C10.6564 20.3077 9.96174 20.4159 9.58974 20.9876C9.55682 21.0378 9.53048 21.0881 9.50414 21.1421C9.44489 21.1074 9.38234 21.0649 9.3165 21.0224C9.82018 20.4082 10.1823 19.7553 10.4358 19.1141C10.5346 18.8784 10.6234 18.6312 10.6992 18.3801C11.2423 18.8514 11.7691 19.5467 12.0028 20.3695C12.2267 21.1615 12.1411 22.0538 11.6901 22.7878L11.6868 22.7839ZM7.0417 17.6036C7.51246 17.4723 7.97335 17.4259 8.41448 17.453C8.43752 17.453 8.46057 17.453 8.48361 17.4569C8.76014 17.4839 9.04655 17.5418 9.34613 17.6384C9.20786 18.1792 9.01034 18.6737 8.77331 19.1064C8.76014 19.1295 8.74697 19.1527 8.73381 19.1759C8.57579 19.4463 8.38814 19.709 8.16758 19.9639C7.83837 19.5506 7.57172 19.1064 7.3709 18.6467C7.36103 18.6235 7.35115 18.6003 7.33798 18.5733C7.21947 18.2758 7.12071 17.9552 7.0417 17.6036V17.6036ZM13.2702 19.5274V19.5197C12.7863 18.1445 11.8382 17.1517 11.0053 16.5993C11.1732 14.266 10.5016 13.2848 9.73788 13.1264C9.71813 13.1226 9.69508 13.1187 9.67533 13.1148C9.06959 13.0221 8.51653 13.5243 8.43752 14.2351C8.35851 14.9459 8.78648 15.5949 9.39221 15.6876C9.44489 15.6953 9.49756 15.6992 9.55023 15.6953C9.55352 15.7726 9.55682 15.8576 9.55682 15.9464C8.85232 15.7417 8.19062 15.7031 7.59147 15.7649C7.36761 15.7842 7.14046 15.8151 6.9166 15.8653C6.99232 15.0772 7.24251 14.1926 7.73303 13.5475C8.20379 12.9217 8.90828 12.5624 9.67204 12.6552C9.81689 12.6745 9.97161 12.7131 10.1132 12.771C10.1198 12.771 10.1263 12.7749 10.1329 12.7788C11.9073 13.6248 13.211 15.6026 13.3492 17.9899C13.3789 18.5153 13.3492 19.033 13.2702 19.5274V19.5274Z" fill="#4EB6FC"/>
</g>
<defs>
<clipPath id="clip0_310_96">
<rect width="38" height="30" fill="white"/>
</clipPath>
</defs>
</svg>
