<svg width="42" height="38" viewBox="0 0 42 38" fill="none" xmlns="http://www.w3.org/2000/svg">
<path d="M20.4805 17.0782L7.85783 30.6204C6.30537 32.2859 6.30537 34.9764 7.85783 36.6419C9.41029 38.3075 11.9181 38.3075 13.4706 36.6419L26.0933 23.0998L20.4805 17.0782V17.0782ZM10.6881 35.3864C9.8402 35.3864 9.14756 34.6561 9.14756 33.7465C9.14756 32.8368 9.8402 32.0937 10.6881 32.0937C11.536 32.0937 12.2167 32.8368 12.2167 33.7465C12.2167 34.6561 11.536 35.3864 10.6881 35.3864ZM40.1968 7.03371L37.3665 10.0829C37.3665 10.0829 35.4677 11.0951 33.5809 9.0708C31.6821 7.03371 32.6375 5.00944 32.6375 5.00944L35.4797 1.96022C36.4111 0.935266 35.2647 0 34.4168 0C30.2132 0 26.8098 3.65138 26.8098 8.14835C26.8098 8.77613 26.8814 9.3911 27.0128 9.98044L20.588 16.8732L26.2724 22.9717L32.6972 16.0789C33.2585 16.2198 33.8317 16.2967 34.4049 16.2967C38.5965 16.2967 42 12.6453 42 8.14835C42 7.22589 41.1282 6.00877 40.1848 7.03371" fill="#0297FB"/>
<path d="M31.9448 36.9879C33.151 38.2819 35.0736 38.3459 36.2081 37.116C37.3426 35.8989 37.2948 33.8362 36.0887 32.5422L11.9778 6.68781C10.7717 5.39381 8.84901 5.32975 7.70258 6.55969C6.56809 7.77682 6.61586 9.83953 7.83394 11.1335L31.9448 36.9879Z" fill="#0070EB"/>
<path d="M22.2121 0.99928C22.2121 0.99928 16.0022 -2.34462 10.8194 3.21573L3.57061 10.9925C3.57061 10.9925 2.5436 9.8779 1.50465 10.9925L0.465694 12.1072C0.465694 12.1072 -0.57326 13.209 0.465694 14.3236L4.60957 18.7693C4.60957 18.7693 5.64852 19.884 6.68747 18.7693L7.71449 17.6547C7.71449 17.6547 8.75344 16.5529 7.71449 15.4383L7.64283 15.3486C8.44295 14.5286 9.62521 13.683 10.8313 14.3236L14.9752 9.8779C14.9752 9.8779 13.9363 6.54682 16.0142 4.31755C18.0801 2.1011 19.1191 2.1011 21.197 2.1011C23.2749 2.1011 22.236 0.986469 22.236 0.986469" fill="#0297FB"/>
</svg>
