<svg width="38" height="38" viewBox="0 0 38 38" fill="none" xmlns="http://www.w3.org/2000/svg">
<g clip-path="url(#clip0_310_73)">
<path d="M23.3708 5.65476e-05C23.3588 0.227889 23.3588 0.455721 23.3348 0.671562C23.3108 0.899394 23.2629 1.12723 23.2029 1.34307C23.071 1.82271 22.8552 2.26639 22.5794 2.67409C22.3875 2.94988 22.1717 3.21369 21.9079 3.42953C21.692 3.6094 21.4522 3.77727 21.2244 3.93316C20.8646 4.16099 20.4689 4.31688 20.0612 4.41281C19.8094 4.47276 19.5456 4.53272 19.2698 4.52073C19.2098 4.52073 19.1619 4.53272 19.1019 4.54471C19.066 4.54471 19.042 4.54471 19.006 4.54471C18.4544 4.50873 17.9148 4.43679 17.3992 4.22095C17.0754 4.08904 16.7636 3.92117 16.4759 3.70533C16.1641 3.47749 15.8763 3.21369 15.6365 2.91391C15.2887 2.49422 15.0369 2.01457 14.869 1.48696C14.7851 1.24714 14.7491 0.995323 14.7012 0.743509C14.6652 0.479703 14.6772 0.227889 14.6772 -0.0239258H0V38.0001H38V5.65476e-05H23.3708V5.65476e-05Z" fill="#0070EB"/>
<path d="M18.982 17.6629C18.7062 18.97 16.5598 29.1864 16.4519 29.3423C16.0562 27.3758 14.1256 17.7828 14.0656 17.6629H11.1518C11.0079 18.3104 8.72957 28.4909 8.51373 29.1265C7.75828 25.3013 7.05081 21.4881 6.33134 17.6629H3.18965C4.40076 23.2988 5.61187 28.9226 6.81098 34.5585H10.0006C10.1445 33.911 12.3389 23.6825 12.5308 23.047C12.6627 23.4666 14.8091 34.1268 14.905 34.5465H18.0347C19.3777 28.9106 20.7207 23.2988 22.0637 17.6629H18.982V17.6629ZM34.5346 34.4146C34.0309 32.6759 30.1938 19.5935 29.6901 17.8668C29.6182 17.627 29.6422 17.6509 29.3903 17.6509H24.6538C24.6538 17.6509 21.9318 28.9106 20.5648 34.5465H23.7185C23.9943 33.2994 24.2701 32.0523 24.5459 30.8052H30.2657C30.4456 31.4408 31.165 33.9349 31.3449 34.5585H34.5825C34.5705 34.4985 34.5585 34.4506 34.5465 34.4146H34.5346ZM29.4263 28.0113C29.4263 28.0113 29.4263 28.0113 29.4143 28.0113C29.3784 28.0113 29.3544 28.0113 29.3184 28.0113C27.9634 28.0113 26.5964 28.0113 25.2414 28.0113C25.2174 28.0113 25.2054 28.0113 25.1575 27.9873C25.6131 25.9128 26.0808 23.8624 26.5364 21.7879H27.8795C28.4071 23.8384 28.9347 25.9009 29.4623 27.9513L29.4383 27.9873L29.4263 28.0113Z" fill="#4EB6FC"/>
</g>
<defs>
<clipPath id="clip0_310_73">
<rect width="38" height="38" fill="white"/>
</clipPath>
</defs>
</svg>
