<svg width="34" height="38" viewBox="0 0 34 38" fill="none" xmlns="http://www.w3.org/2000/svg">
<path d="M26.5144 21.2443C25.9546 21.2443 25.3948 21.3209 24.8536 21.4647L15.3178 10.7799C15.4484 10.1666 15.5137 9.54376 15.5137 8.92088C15.5137 4.3691 12.2107 0.670166 8.14259 0.670166C7.31217 0.670166 6.21117 1.60927 7.12556 2.64421L9.8874 5.72984C9.8874 5.72984 10.8018 7.79013 8.97301 9.84083C7.13489 11.9011 5.29678 10.8757 5.29678 10.8757L2.54426 7.79013C1.62987 6.76477 0.780792 7.99136 0.780792 8.92088C0.780792 13.4822 4.07447 17.1812 8.14259 17.1812C8.71175 17.1812 9.27159 17.1046 9.80343 16.9608L19.3392 27.6456C19.2086 28.2588 19.1526 28.8817 19.1433 29.5046C19.1433 34.0659 22.437 37.7553 26.5051 37.7553C27.3355 37.7553 28.4365 36.8066 27.5221 35.7813L24.7696 32.6957C24.7696 32.6957 23.8459 30.6353 25.684 28.575C27.5221 26.5148 29.3509 27.5497 29.3509 27.5497L32.1034 30.6353C33.0178 31.6607 33.8669 30.4341 33.8669 29.5046C33.8669 24.9432 30.5639 21.2443 26.4958 21.2443" fill="#0070EB"/>
</svg>
