<svg width="36" height="39" viewBox="0 0 36 39" fill="none" xmlns="http://www.w3.org/2000/svg">
<g clip-path="url(#clip0_5_127)">
<path d="M27.58 21.47C26.98 21.47 26.38 21.55 25.8 21.7L15.58 10.55C15.72 9.91 15.79 9.26 15.79 8.61C15.79 3.86 12.25 0 7.89 0C7 0 5.82 0.98 6.8 2.06L9.76 5.28C9.76 5.28 10.74 7.43 8.78 9.57C6.81 11.72 4.84 10.65 4.84 10.65L1.89 7.43C0.91 6.36 0 7.64 0 8.61C0 13.37 3.53 17.23 7.89 17.23C8.5 17.23 9.1 17.15 9.67 17L19.89 28.15C19.75 28.79 19.69 29.44 19.68 30.09C19.68 34.85 23.21 38.7 27.57 38.7C28.46 38.7 29.64 37.71 28.66 36.64L25.71 33.42C25.71 33.42 24.72 31.27 26.69 29.12C28.66 26.97 30.62 28.05 30.62 28.05L33.57 31.27C34.55 32.34 35.46 31.06 35.46 30.09C35.46 25.33 31.92 21.47 27.56 21.47" fill="#0070EB"/>
</g>
<defs>
<clipPath id="clip0_5_127">
<rect width="35.47" height="38.7" fill="white"/>
</clipPath>
</defs>
</svg>
