<svg width="32" height="38" viewBox="0 0 32 38" fill="none" xmlns="http://www.w3.org/2000/svg">
<g clip-path="url(#clip0_5_96)">
<path d="M26.35 15.86L4.95001 4.95001" stroke="#35ACFC" stroke-width="1.13" stroke-miterlimit="10"/>
<path d="M11.97 32.21L4.95001 4.95001" stroke="#35ACFC" stroke-width="1.13" stroke-miterlimit="10"/>
<path d="M26.35 15.86L11.97 32.21" stroke="#35ACFC" stroke-width="1.13" stroke-miterlimit="10"/>
<path d="M4.95 9.9C7.68381 9.9 9.9 7.68381 9.9 4.95C9.9 2.21619 7.68381 0 4.95 0C2.21619 0 0 2.21619 0 4.95C0 7.68381 2.21619 9.9 4.95 9.9Z" fill="#0070EB"/>
<path d="M26.35 20.81C29.0838 20.81 31.3 18.5938 31.3 15.86C31.3 13.1262 29.0838 10.91 26.35 10.91C23.6162 10.91 21.4 13.1262 21.4 15.86C21.4 18.5938 23.6162 20.81 26.35 20.81Z" fill="#0070EB"/>
<path d="M11.97 37.16C14.7038 37.16 16.92 34.9438 16.92 32.21C16.92 29.4762 14.7038 27.26 11.97 27.26C9.23618 27.26 7.01999 29.4762 7.01999 32.21C7.01999 34.9438 9.23618 37.16 11.97 37.16Z" fill="#0070EB"/>
</g>
<defs>
<clipPath id="clip0_5_96">
<rect width="31.3" height="37.16" fill="white"/>
</clipPath>
</defs>
</svg>
