<svg width="36" height="30" viewBox="0 0 36 30" fill="none" xmlns="http://www.w3.org/2000/svg">
<g clip-path="url(#clip0_5_112)">
<path d="M17.15 13.33L6.57998 23.9C5.27998 25.2 5.27998 27.3 6.57998 28.6C7.87998 29.9 9.97998 29.9 11.28 28.6L21.85 18.03L17.15 13.33ZM8.94998 27.62C8.23998 27.62 7.65998 27.05 7.65998 26.34C7.65998 25.63 8.23998 25.05 8.94998 25.05C9.65998 25.05 10.23 25.63 10.23 26.34C10.23 27.05 9.65998 27.62 8.94998 27.62ZM33.66 5.49L31.29 7.87C31.29 7.87 29.7 8.66 28.12 7.08C26.53 5.49 27.33 3.91 27.33 3.91L29.71 1.53C30.49 0.73 29.53 0 28.82 0C25.3 0 22.45 2.85 22.45 6.36C22.45 6.85 22.51 7.33 22.62 7.79L17.24 13.17L22 17.93L27.38 12.55C27.85 12.66 28.33 12.72 28.81 12.72C32.32 12.72 35.17 9.87 35.17 6.36C35.17 5.64 34.44 4.69 33.65 5.49" fill="#0297FB"/>
<path d="M26.75 28.87C27.76 29.88 29.37 29.93 30.32 28.97C31.27 28.02 31.23 26.41 30.22 25.4L10.03 5.22C9.01996 4.21 7.40996 4.16 6.44996 5.12C5.49996 6.07 5.53996 7.68 6.55996 8.69L26.75 28.87Z" fill="#0070EB"/>
<path d="M18.6 0.779985C18.6 0.779985 13.4 -1.83001 9.05996 2.50999L2.98996 8.57999C2.98996 8.57999 2.12996 7.70999 1.25996 8.57999L0.389963 9.44999C0.389963 9.44999 -0.480037 10.31 0.389963 11.18L3.85996 14.65C3.85996 14.65 4.72996 15.52 5.59996 14.65L6.45996 13.78C6.45996 13.78 7.32996 12.92 6.45996 12.05L6.39996 11.98C7.06996 11.34 8.05996 10.68 9.06996 11.18L12.54 7.70999C12.54 7.70999 11.67 5.10999 13.41 3.36999C15.14 1.63999 16.01 1.63999 17.75 1.63999C19.49 1.63999 18.62 0.769985 18.62 0.769985" fill="#0297FB"/>
</g>
<defs>
<clipPath id="clip0_5_112">
<rect width="35.17" height="29.66" fill="white"/>
</clipPath>
</defs>
</svg>
