<svg width="32" height="32" viewBox="0 0 32 32" fill="none" xmlns="http://www.w3.org/2000/svg">
<g clip-path="url(#clip0_5_89)">
<path d="M19.49 -1.95317e-05C19.48 0.18998 19.48 0.37998 19.46 0.55998C19.44 0.74998 19.4 0.93998 19.35 1.11998C19.24 1.51998 19.06 1.88998 18.83 2.22998C18.67 2.45998 18.49 2.67998 18.27 2.85998C18.09 3.00998 17.89 3.14998 17.7 3.27998C17.4 3.46998 17.07 3.59998 16.73 3.67998C16.52 3.72998 16.3 3.77998 16.07 3.76998C16.02 3.76998 15.98 3.77998 15.93 3.78998C15.9 3.78998 15.88 3.78998 15.85 3.78998C15.39 3.75998 14.94 3.69998 14.51 3.51998C14.24 3.40998 13.98 3.26998 13.74 3.08998C13.48 2.89998 13.24 2.67998 13.04 2.42998C12.75 2.07998 12.54 1.67998 12.4 1.23998C12.33 1.03998 12.3 0.82998 12.26 0.61998C12.23 0.39998 12.24 0.18998 12.24 -0.0200195H0V31.69H31.69V-1.95317e-05H19.49Z" fill="#0070EB"/>
<path d="M15.83 14.73C15.6 15.82 13.81 24.34 13.72 24.47C13.39 22.83 11.78 14.83 11.73 14.73H9.30003C9.18003 15.27 7.28003 23.76 7.10003 24.29C6.47003 21.1 5.88003 17.92 5.28003 14.73H2.66003C3.67003 19.43 4.68003 24.12 5.68003 28.82H8.34003C8.46003 28.28 10.29 19.75 10.45 19.22C10.56 19.57 12.35 28.46 12.43 28.81H15.04C16.16 24.11 17.28 19.43 18.4 14.73H15.83ZM28.8 28.7C28.38 27.25 25.18 16.34 24.76 14.9C24.7 14.7 24.72 14.72 24.51 14.72H20.56C20.56 14.72 18.29 24.11 17.15 28.81H19.78C20.01 27.77 20.24 26.73 20.47 25.69H25.24C25.39 26.22 25.99 28.3 26.14 28.82H28.84C28.83 28.77 28.82 28.73 28.81 28.7H28.8ZM24.54 23.36C24.54 23.36 24.54 23.36 24.53 23.36C24.5 23.36 24.48 23.36 24.45 23.36C23.32 23.36 22.18 23.36 21.05 23.36C21.03 23.36 21.02 23.36 20.98 23.34C21.36 21.61 21.75 19.9 22.13 18.17H23.25C23.69 19.88 24.13 21.6 24.57 23.31L24.55 23.34L24.54 23.36Z" fill="#4EB6FC"/>
</g>
<defs>
<clipPath id="clip0_5_89">
<rect width="31.69" height="31.69" fill="white"/>
</clipPath>
</defs>
</svg>
